<svg xmlns="http://www.w3.org/2000/svg" viewBox="0 0 110 110" aria-hidden="true">
  <defs>
    <radialGradient id="p-bg" cx="50%" cy="50%" r="50%">
      <stop offset="0%" stop-color="#131c38"/>
      <stop offset="100%" stop-color="#0a0f20"/>
    </radialGradient>
  </defs>
  <rect width="110" height="110" rx="18" fill="url(#p-bg)"/>
  <!-- Open book -->
  <path d="M 28 38 L 28 72 Q 55 66 55 66 Q 55 66 82 72 L 82 38 Q 55 32 55 32 Q 55 32 28 38 Z" fill="none" stroke="#c9a84c" stroke-width="2" stroke-linejoin="round"/>
  <line x1="55" y1="32" x2="55" y2="66" stroke="#c9a84c" stroke-width="1.8" stroke-linecap="round"/>
  <!-- Lines on pages -->
  <line x1="34" y1="45" x2="52" y2="43" stroke="#c9a84c" stroke-width="1" opacity="0.5"/>
  <line x1="34" y1="51" x2="52" y2="49" stroke="#c9a84c" stroke-width="1" opacity="0.5"/>
  <line x1="34" y1="57" x2="52" y2="55" stroke="#c9a84c" stroke-width="1" opacity="0.4"/>
  <line x1="58" y1="43" x2="76" y2="45" stroke="#c9a84c" stroke-width="1" opacity="0.5"/>
  <line x1="58" y1="49" x2="76" y2="51" stroke="#c9a84c" stroke-width="1" opacity="0.5"/>
  <line x1="58" y1="55" x2="76" y2="57" stroke="#c9a84c" stroke-width="1" opacity="0.4"/>
  <!-- Light rays above book -->
  <line x1="55" y1="18" x2="55" y2="28" stroke="#e8c97a" stroke-width="2" stroke-linecap="round" opacity="0.8"/>
  <line x1="44" y1="21" x2="47" y2="30" stroke="#e8c97a" stroke-width="1.5" stroke-linecap="round" opacity="0.55"/>
  <line x1="66" y1="21" x2="63" y2="30" stroke="#e8c97a" stroke-width="1.5" stroke-linecap="round" opacity="0.55"/>
  <line x1="36" y1="27" x2="41" y2="34" stroke="#e8c97a" stroke-width="1" stroke-linecap="round" opacity="0.35"/>
  <line x1="74" y1="27" x2="69" y2="34" stroke="#e8c97a" stroke-width="1" stroke-linecap="round" opacity="0.35"/>
  <!-- Label -->
  <text x="55" y="95" text-anchor="middle" font-family="Georgia,serif" font-size="8.5" fill="#c9a84c" font-style="italic">La Palabra</text>
  <text x="55" y="106" text-anchor="middle" font-family="Georgia,serif" font-size="7" fill="#8a90a8" font-style="italic" opacity="0.75">The Word</text>
</svg>
