<svg viewBox="0 0 100 100" xmlns="http://www.w3.org/2000/svg">
  <defs>
    <radialGradient id="d10glow" cx="50%" cy="50%" r="50%">
      <stop offset="0%" stop-color="#c9a84c" stop-opacity="0.18"/>
      <stop offset="100%" stop-color="#c9a84c" stop-opacity="0"/>
    </radialGradient>
    <linearGradient id="d10sky" x1="0%" y1="0%" x2="0%" y2="100%">
      <stop offset="0%" stop-color="#1a0a00"/>
      <stop offset="60%" stop-color="#3d1f00"/>
      <stop offset="100%" stop-color="#8a6e2f"/>
    </linearGradient>
    <linearGradient id="d10path" x1="0%" y1="0%" x2="0%" y2="100%">
      <stop offset="0%" stop-color="#c9a84c" stop-opacity="0.9"/>
      <stop offset="100%" stop-color="#e8c97a" stop-opacity="0.4"/>
    </linearGradient>
  </defs>
  <circle cx="50" cy="50" r="46" fill="url(#d10glow)"/>
  <!-- Sky background -->
  <rect x="6" y="6" width="88" height="60" rx="3" fill="url(#d10sky)"/>
  <!-- Horizon glow -->
  <ellipse cx="50" cy="64" rx="30" ry="8" fill="#c9a84c" opacity="0.25"/>
  <!-- Cross on horizon -->
  <line x1="50" y1="55" x2="50" y2="38" stroke="#e8c97a" stroke-width="2.5" stroke-linecap="round"/>
  <line x1="43" y1="46" x2="57" y2="46" stroke="#e8c97a" stroke-width="2.5" stroke-linecap="round"/>
  <!-- Cross glow -->
  <circle cx="50" cy="46" r="7" fill="#e8c97a" opacity="0.15"/>
  <!-- Converging path — left edge to center -->
  <path d="M6,94 L46,64 L50,64 L54,64 L94,94 Z" fill="url(#d10path)" opacity="0.55"/>
  <!-- Path edge lines -->
  <line x1="6" y1="94" x2="50" y2="64" stroke="#c9a84c" stroke-width="1.2" opacity="0.7"/>
  <line x1="94" y1="94" x2="50" y2="64" stroke="#c9a84c" stroke-width="1.2" opacity="0.7"/>
  <!-- Ground texture lines -->
  <line x1="12" y1="86" x2="50" y2="66" stroke="#8a6e2f" stroke-width="0.6" opacity="0.4"/>
  <line x1="88" y1="86" x2="50" y2="66" stroke="#8a6e2f" stroke-width="0.6" opacity="0.4"/>
  <line x1="20" y1="80" x2="50" y2="66" stroke="#8a6e2f" stroke-width="0.5" opacity="0.3"/>
  <line x1="80" y1="80" x2="50" y2="66" stroke="#8a6e2f" stroke-width="0.5" opacity="0.3"/>
  <!-- Stars -->
  <circle cx="20" cy="20" r="0.8" fill="#e8c97a" opacity="0.6"/>
  <circle cx="35" cy="14" r="0.6" fill="#e8c97a" opacity="0.5"/>
  <circle cx="65" cy="16" r="0.8" fill="#e8c97a" opacity="0.6"/>
  <circle cx="78" cy="22" r="0.5" fill="#e8c97a" opacity="0.4"/>
  <circle cx="28" cy="30" r="0.5" fill="#e8c97a" opacity="0.4"/>
</svg>
