<svg viewBox="0 0 100 100" xmlns="http://www.w3.org/2000/svg">
  <defs>
    <radialGradient id="d2bg" cx="50%" cy="50%" r="50%">
      <stop offset="0%" stop-color="#c9a84c" stop-opacity="0.18"/>
      <stop offset="100%" stop-color="#c9a84c" stop-opacity="0"/>
    </radialGradient>
    <linearGradient id="d2stem" x1="0%" y1="0%" x2="100%" y2="100%">
      <stop offset="0%" stop-color="#e8c97a"/>
      <stop offset="100%" stop-color="#8a6e2f"/>
    </linearGradient>
  </defs>
  <circle cx="50" cy="50" r="44" fill="url(#d2bg)"/>
  <line x1="50" y1="80" x2="50" y2="22" stroke="url(#d2stem)" stroke-width="2" stroke-linecap="round"/>
  <ellipse cx="50" cy="22" rx="5" ry="10" fill="#c9a84c" opacity="0.9"/>
  <ellipse cx="42" cy="32" rx="4.5" ry="9" fill="#c9a84c" opacity="0.8" transform="rotate(-22 42 32)"/>
  <ellipse cx="40" cy="44" rx="4" ry="8.5" fill="#c9a84c" opacity="0.7" transform="rotate(-18 40 44)"/>
  <ellipse cx="41" cy="56" rx="3.5" ry="7.5" fill="#c9a84c" opacity="0.6" transform="rotate(-14 41 56)"/>
  <ellipse cx="58" cy="32" rx="4.5" ry="9" fill="#c9a84c" opacity="0.8" transform="rotate(22 58 32)"/>
  <ellipse cx="60" cy="44" rx="4" ry="8.5" fill="#c9a84c" opacity="0.7" transform="rotate(18 60 44)"/>
  <ellipse cx="59" cy="56" rx="3.5" ry="7.5" fill="#c9a84c" opacity="0.6" transform="rotate(14 59 56)"/>
  <line x1="50" y1="12" x2="47" y2="6"  stroke="#e8c97a" stroke-width="1" stroke-linecap="round" opacity="0.7"/>
  <line x1="50" y1="12" x2="53" y2="6"  stroke="#e8c97a" stroke-width="1" stroke-linecap="round" opacity="0.7"/>
  <line x1="50" y1="12" x2="50" y2="5"  stroke="#e8c97a" stroke-width="1.2" stroke-linecap="round" opacity="0.8"/>
  <circle cx="50" cy="84" r="7" fill="none" stroke="#c9a84c" stroke-width="1.4" opacity="0.55"/>
  <circle cx="50" cy="84" r="4.5" fill="#fffde8" opacity="0.18"/>
  <text x="50" y="87" text-anchor="middle" font-family="Georgia,serif" font-size="5.5"
        font-style="italic" fill="#c9a84c" opacity="0.7">IHS</text>
</svg>
