<svg viewBox="0 0 100 100" xmlns="http://www.w3.org/2000/svg">
  <defs>
    <radialGradient id="d13glow" cx="50%" cy="48%" r="50%">
      <stop offset="0%" stop-color="#c0392b" stop-opacity="0.35"/>
      <stop offset="60%" stop-color="#8a1a10" stop-opacity="0.1"/>
      <stop offset="100%" stop-color="#8a1a10" stop-opacity="0"/>
    </radialGradient>
    <radialGradient id="d13heart" cx="40%" cy="35%" r="65%">
      <stop offset="0%" stop-color="#e8587a"/>
      <stop offset="60%" stop-color="#c0392b"/>
      <stop offset="100%" stop-color="#7a1010"/>
    </radialGradient>
    <linearGradient id="d13flame" x1="0%" y1="100%" x2="0%" y2="0%">
      <stop offset="0%" stop-color="#e8c97a"/>
      <stop offset="60%" stop-color="#c9a84c"/>
      <stop offset="100%" stop-color="#fffde8"/>
    </linearGradient>
  </defs>
  <circle cx="50" cy="50" r="46" fill="url(#d13glow)"/>
  <!-- Crown of thorns -->
  <circle cx="50" cy="54" r="22" fill="none" stroke="#5a3a10" stroke-width="2.5" opacity="0.7"/>
  <!-- Thorn spikes -->
  <g stroke="#5a3a10" stroke-width="1.2" opacity="0.7">
    <line x1="50" y1="32" x2="48" y2="26"/><line x1="50" y1="32" x2="52" y2="26"/>
    <line x1="62" y1="38" x2="66" y2="33"/><line x1="62" y1="38" x2="68" y2="37"/>
    <line x1="70" y1="50" x2="76" y2="48"/><line x1="70" y1="50" x2="76" y2="52"/>
    <line x1="64" y1="64" x2="68" y2="69"/><line x1="64" y1="64" x2="70" y2="66"/>
    <line x1="50" y1="76" x2="48" y2="82"/><line x1="50" y1="76" x2="52" y2="82"/>
    <line x1="36" y1="64" x2="32" y2="69"/><line x1="36" y1="64" x2="30" y2="66"/>
    <line x1="30" y1="50" x2="24" y2="48"/><line x1="30" y1="50" x2="24" y2="52"/>
    <line x1="38" y1="38" x2="34" y2="33"/><line x1="38" y1="38" x2="32" y2="37"/>
  </g>
  <!-- Heart -->
  <path d="M50,66 C50,66 30,55 30,43 C30,36 36,31 42,32 C45,32 48,35 50,38 C52,35 55,32 58,32 C64,31 70,36 70,43 C70,55 50,66 50,66 Z"
        fill="url(#d13heart)" opacity="0.95"/>
  <!-- Cross on top of heart -->
  <line x1="50" y1="27" x2="50" y2="38" stroke="#e8c97a" stroke-width="2.5" stroke-linecap="round"/>
  <line x1="44" y1="31" x2="56" y2="31" stroke="#e8c97a" stroke-width="2.5" stroke-linecap="round"/>
  <!-- Flames on top of heart -->
  <path d="M46,37 C46,37 43,33 44,30 C44.5,28 46,27 46,27 C46,27 47,30 47,32 C48,30 48.5,27 48.5,27 C49,29 49.5,33 48.5,36 C48,36 46,37 46,37 Z"
        fill="url(#d13flame)" opacity="0.85"/>
  <path d="M50,36 C50,36 48,31 49,28 C49.5,26 50.5,25 50.5,25 C50.5,25 51.5,28 51.5,31 C52,29 53,26 53,26 C53.5,28 53.5,32 52,35 C51.5,36 50,36 50,36 Z"
        fill="url(#d13flame)" opacity="0.9"/>
  <path d="M54,37 C54,37 52,33 53,30 C53.5,28 54.5,27 54.5,27 C54.5,27 55.5,29 55.5,32 C56,30 56.5,27 56.5,27 C57,29 57,33 55.5,36 C55,36.5 54,37 54,37 Z"
        fill="url(#d13flame)" opacity="0.85"/>
  <!-- Heart highlight -->
  <path d="M38,40 C36,38 36,34 39,33" fill="none" stroke="#e8587a" stroke-width="1.5" opacity="0.4" stroke-linecap="round"/>
</svg>
