<svg viewBox="0 0 100 100" xmlns="http://www.w3.org/2000/svg">
  <defs>
    <radialGradient id="d25glow" cx="50%" cy="45%" r="55%">
      <stop offset="0%" stop-color="#fffde8" stop-opacity="0.8"/>
      <stop offset="40%" stop-color="#e8c97a" stop-opacity="0.4"/>
      <stop offset="100%" stop-color="#c9a84c" stop-opacity="0"/>
    </radialGradient>
  </defs>
  <circle cx="50" cy="45" r="46" fill="url(#d25glow)"/>
  <!-- Left open upward hand -->
  <path d="M22,72 C20,62 18,54 20,46 C20,43 22,42 24,43 C24,40 26,39 28,41
           C28,38 31,37 33,39 C33,36 36,36 37,38 L38,55
           C36,52 33,51 32,53 L30,68 Z"
        fill="none" stroke="#c9a84c" stroke-width="2" stroke-linejoin="round" opacity="0.8"/>
  <!-- Right open upward hand -->
  <path d="M78,72 C80,62 82,54 80,46 C80,43 78,42 76,43 C76,40 74,39 72,41
           C72,38 69,37 67,39 C67,36 64,36 63,38 L62,55
           C64,52 67,51 68,53 L70,68 Z"
        fill="none" stroke="#c9a84c" stroke-width="2" stroke-linejoin="round" opacity="0.8"/>
  <!-- Light descending into hands from above -->
  <line x1="30" y1="20" x2="30" y2="48" stroke="#e8c97a" stroke-width="1.2" opacity="0.35" stroke-linecap="round"/>
  <line x1="50" y1="10" x2="50" y2="38" stroke="#e8c97a" stroke-width="1.5" opacity="0.4"  stroke-linecap="round"/>
  <line x1="70" y1="20" x2="70" y2="48" stroke="#e8c97a" stroke-width="1.2" opacity="0.35" stroke-linecap="round"/>
  <!-- Glow in palm center area -->
  <circle cx="30" cy="54" r="5" fill="#e8c97a" opacity="0.18"/>
  <circle cx="70" cy="54" r="5" fill="#e8c97a" opacity="0.18"/>
  <!-- Central descending light dot -->
  <circle cx="50" cy="28" r="6" fill="#fffde8" opacity="0.7"/>
  <circle cx="50" cy="28" r="3" fill="#fffde8" opacity="0.9"/>
</svg>
