<svg viewBox="0 0 100 100" xmlns="http://www.w3.org/2000/svg">
  <defs>
    <radialGradient id="d4halo" cx="50%" cy="40%" r="40%">
      <stop offset="0%" stop-color="#c9a84c" stop-opacity="0.3"/>
      <stop offset="100%" stop-color="#c9a84c" stop-opacity="0"/>
    </radialGradient>
    <linearGradient id="d4skin" x1="0%" y1="0%" x2="100%" y2="100%">
      <stop offset="0%" stop-color="#e8c97a"/>
      <stop offset="100%" stop-color="#c9a84c"/>
    </linearGradient>
  </defs>
  <circle cx="50" cy="38" r="36" fill="url(#d4halo)"/>
  <circle cx="50" cy="28" r="13" fill="#fffde8" opacity="0.92"/>
  <circle cx="50" cy="28" r="13" fill="none" stroke="#c9a84c" stroke-width="1.3" opacity="0.7"/>
  <line x1="50" y1="19" x2="50" y2="37" stroke="#c9a84c" stroke-width="1.2" opacity="0.5"/>
  <line x1="41" y1="28" x2="59" y2="28" stroke="#c9a84c" stroke-width="1.2" opacity="0.5"/>
  <path d="M20,70 Q18,58 26,52 Q30,50 34,52 L38,54 Q42,50 46,55 L46,72 Q38,76 28,74 Z"
        fill="url(#d4skin)" opacity="0.85"/>
  <path d="M34,52 Q33,44 35,42 Q37,40 38,43 L38,54" fill="url(#d4skin)" opacity="0.8"/>
  <path d="M38,51 Q37,43 39,41 Q41,39 42,42 L42,53" fill="url(#d4skin)" opacity="0.8"/>
  <path d="M42,52 Q41,44 43,42 Q45,40 46,43 L46,54" fill="url(#d4skin)" opacity="0.8"/>
  <path d="M80,70 Q82,58 74,52 Q70,50 66,52 L62,54 Q58,50 54,55 L54,72 Q62,76 72,74 Z"
        fill="url(#d4skin)" opacity="0.85"/>
  <path d="M66,52 Q67,44 65,42 Q63,40 62,43 L62,54" fill="url(#d4skin)" opacity="0.8"/>
  <path d="M62,51 Q63,43 61,41 Q59,39 58,42 L58,53" fill="url(#d4skin)" opacity="0.8"/>
  <path d="M58,52 Q59,44 57,42 Q55,40 54,43 L54,54" fill="url(#d4skin)" opacity="0.8"/>
  <line x1="50" y1="15" x2="50" y2="10" stroke="#c9a84c" stroke-width="1" stroke-linecap="round" opacity="0.4"/>
  <line x1="58" y1="18" x2="62" y2="13" stroke="#c9a84c" stroke-width="1" stroke-linecap="round" opacity="0.35"/>
  <line x1="42" y1="18" x2="38" y2="13" stroke="#c9a84c" stroke-width="1" stroke-linecap="round" opacity="0.35"/>
  <line x1="63" y1="28" x2="68" y2="28" stroke="#c9a84c" stroke-width="1" stroke-linecap="round" opacity="0.35"/>
  <line x1="37" y1="28" x2="32" y2="28" stroke="#c9a84c" stroke-width="1" stroke-linecap="round" opacity="0.35"/>
</svg>
