<svg xmlns="http://www.w3.org/2000/svg" viewBox="0 0 400 600">
  <defs>
    <radialGradient id="ag-bg" cx="50%" cy="35%" r="65%">
      <stop offset="0%" stop-color="#0c0c18"/><stop offset="100%" stop-color="#060610"/>
    </radialGradient>
    <linearGradient id="ag-r1" x1="50%" y1="0%" x2="10%" y2="100%">
      <stop offset="0%" stop-color="#8060e0" stop-opacity="1"/><stop offset="100%" stop-color="#301860" stop-opacity="0.4"/>
    </linearGradient>
    <linearGradient id="ag-r2" x1="50%" y1="0%" x2="90%" y2="100%">
      <stop offset="0%" stop-color="#f8f8f0" stop-opacity="1"/><stop offset="100%" stop-color="#c0c0d0" stop-opacity="0.4"/>
    </linearGradient>
    <filter id="ag-gl"><feGaussianBlur stdDeviation="9" result="b"/><feMerge><feMergeNode in="b"/><feMergeNode in="b"/><feMergeNode in="SourceGraphic"/></feMerge></filter>
    <filter id="ag-g2"><feGaussianBlur stdDeviation="5" result="b"/><feMerge><feMergeNode in="b"/><feMergeNode in="SourceGraphic"/></feMerge></filter>
  </defs>
  <rect width="400" height="600" fill="url(#ag-bg)"/>
  <rect width="400" height="600" fill="#402080" opacity="0.10"/>
  <polygon points="198,265 -25,610 115,610" fill="url(#ag-r1)" filter="url(#ag-gl)" opacity="0.70"/>
  <polygon points="198,265 20,600  85,600"  fill="#8060e0" opacity="0.36"/>
  <polygon points="202,265 425,610 285,610" fill="url(#ag-r2)" filter="url(#ag-gl)" opacity="0.70"/>
  <polygon points="202,265 375,600 315,600" fill="#f8f8f0" opacity="0.34"/>
  <!-- Wings -->
  <path d="M168,178 Q100,115 12,10 Q-2,-2 8,32 Q55,62 118,145 Q148,168 168,192 Z" fill="#a898e8" opacity="0.74"/>
  <path d="M168,183 Q108,138 30,38 Q12,24 24,52 Q72,80 128,158 Q152,175 168,195 Z" fill="#c8b8ff" opacity="0.66"/>
  <path d="M168,188 Q128,162 68,105 Q50,92 58,118 Q100,135 148,178 Q162,187 168,200 Z" fill="#8878d8" opacity="0.58"/>
  <path d="M168,183 Q105,132 18,18" stroke="#8060e0" stroke-width="1.0" fill="none" opacity="0.44"/>
  <path d="M168,185 Q112,145 38,52" stroke="#8060e0" stroke-width="1.0" fill="none" opacity="0.37"/>
  <path d="M168,187 Q122,158 72,108" stroke="#8060e0" stroke-width="1.0" fill="none" opacity="0.28"/>
  <path d="M232,178 Q300,115 388,10 Q402,-2 392,32 Q345,62 282,145 Q252,168 232,192 Z" fill="#a898e8" opacity="0.74"/>
  <path d="M232,183 Q292,138 370,38 Q388,24 376,52 Q328,80 272,158 Q248,175 232,195 Z" fill="#c8b8ff" opacity="0.66"/>
  <path d="M232,188 Q272,162 332,105 Q350,92 342,118 Q300,135 252,178 Q238,187 232,200 Z" fill="#8878d8" opacity="0.58"/>
  <path d="M232,183 Q295,132 382,18" stroke="#8060e0" stroke-width="1.0" fill="none" opacity="0.44"/>
  <path d="M232,185 Q288,145 362,52" stroke="#8060e0" stroke-width="1.0" fill="none" opacity="0.37"/>
  <path d="M232,187 Q278,158 328,108" stroke="#8060e0" stroke-width="1.0" fill="none" opacity="0.28"/>
  <!-- White robe -->
  <path d="M168,155 Q140,205 126,390 Q200,415 274,390 Q260,205 232,155 Z" fill="#fffff0" opacity="0.88"/>
  <!-- Violet/purple mantle -->
  <path d="M168,155 Q124,192 108,318 Q122,330 148,312 Q150,228 178,168 Z" fill="#5030a0" opacity="0.82"/>
  <path d="M232,155 Q260,198 270,318 Q290,322 296,300 Q286,198 248,158 Z" fill="#5030a0" opacity="0.76"/>
  <!-- Small child figure (the guarded soul) -->
  <ellipse cx="200" cy="430" rx="12" ry="14" fill="#f0d8a0" opacity="0.80"/>
  <circle  cx="200" cy="415" r="10" fill="#f0d8a0" opacity="0.78"/>
  <!-- Angel arm guiding child -->
  <path d="M140,218 Q115,255 108,295" stroke="#fffff0" stroke-width="17" fill="none" stroke-linecap="round" opacity="0.84"/>
  <path d="M260,218 Q285,255 292,295" stroke="#5030a0" stroke-width="16" fill="none" stroke-linecap="round" opacity="0.80"/>
  <!-- Hands -->
  <ellipse cx="107" cy="298" rx="12" ry="15" fill="#d4c0a0" opacity="0.9"/>
  <ellipse cx="293" cy="298" rx="12" ry="15" fill="#d4c0a0" opacity="0.9"/>
  <!-- Pointing hand down toward child -->
  <line x1="293" y1="298" x2="215" y2="420" stroke="#d4c0a0" stroke-width="2" stroke-opacity="0.3" stroke-dasharray="4,4"/>
  <!-- Neck + head -->
  <rect x="193" y="142" width="14" height="18" rx="4" fill="#d4c0a0" opacity="0.9"/>
  <ellipse cx="200" cy="108" rx="26" ry="30" fill="#d4c0a0" opacity="0.92"/>
  <path d="M174,106 Q176,72 200,68 Q224,72 226,106 Q218,86 200,84 Q182,86 174,106 Z" fill="#e8e0d0" opacity="0.55"/>
  <!-- Halo -->
  <circle cx="200" cy="108" r="53" fill="none" stroke="#e8c97a" stroke-width="1.8" stroke-opacity="0.65" filter="url(#ag-g2)"/>
  <circle cx="200" cy="108" r="47" fill="none" stroke="#e8c97a" stroke-width="0.5" stroke-opacity="0.22"/>
  <!-- Frame -->
  <rect x="6" y="6" width="388" height="588" rx="8" fill="none" stroke="#c9a84c" stroke-width="1.2" stroke-opacity="0.5"/>
  <rect x="12" y="12" width="376" height="576" rx="5" fill="none" stroke="#c9a84c" stroke-width="0.5" stroke-opacity="0.18"/>
  <!-- Panel -->
  <rect x="18" y="528" width="364" height="66" rx="6" fill="#060610" opacity="0.86"/>
  <line x1="46" y1="535" x2="354" y2="535" stroke="#c9a84c" stroke-width="0.5" stroke-opacity="0.28"/>
  <text x="200" y="548" text-anchor="middle" font-family="Arial,sans-serif" font-size="8" fill="#c9a84c" letter-spacing="3" opacity="0.9">ANGEL DE LA GUARDA  ·  GUARDIAN ANGEL</text>
  <text x="200" y="567" text-anchor="middle" font-family="Georgia,serif" font-size="14" fill="#c8b8ff" font-style="italic">«El Ángel de la Guarda»</text>
  <text x="200" y="585" text-anchor="middle" font-family="Georgia,serif" font-size="11" fill="#f8f8f0" font-style="italic" opacity="0.8">«The Guardian Angel»</text>
</svg>
