<svg xmlns="http://www.w3.org/2000/svg" viewBox="0 0 400 560" width="400" height="560">
  <defs>
    <linearGradient id="dn-bg" x1="0" y1="0" x2="0" y2="1">
      <stop offset="0%"  stop-color="#020510"/><stop offset="100%" stop-color="#060c22"/>
    </linearGradient>
    <radialGradient id="dn-glory" cx="50%" cy="44%" r="62%">
      <stop offset="0%"  stop-color="#f8e858" stop-opacity="0.55"/>
      <stop offset="40%" stop-color="#e09020" stop-opacity="0.22"/>
      <stop offset="100%" stop-color="#c06010" stop-opacity="0"/>
    </radialGradient>
    <radialGradient id="dn-rose" cx="50%" cy="62%" r="38%">
      <stop offset="0%"  stop-color="#d84060" stop-opacity="0.28"/>
      <stop offset="100%" stop-color="#800020" stop-opacity="0"/>
    </radialGradient>
    <linearGradient id="dn-r1" x1="0" y1="0" x2="1" y2="1">
      <stop offset="0%"  stop-color="#f8d030" stop-opacity="0.92"/>
      <stop offset="100%" stop-color="#c06010" stop-opacity="0"/>
    </linearGradient>
    <linearGradient id="dn-r2" x1="1" y1="0" x2="0" y2="1">
      <stop offset="0%"  stop-color="#f09030" stop-opacity="0.88"/>
      <stop offset="100%" stop-color="#800820" stop-opacity="0"/>
    </linearGradient>
    <radialGradient id="dn-halo" cx="50%" cy="50%" r="50%">
      <stop offset="0%"  stop-color="#fffff8" stop-opacity="0.95"/>
      <stop offset="40%" stop-color="#f8e858" stop-opacity="0.45"/>
      <stop offset="100%" stop-color="#e08020" stop-opacity="0"/>
    </radialGradient>
    <linearGradient id="dn-gold" x1="0" y1="0" x2="1" y2="1">
      <stop offset="0%"  stop-color="#fffff0"/>
      <stop offset="44%" stop-color="#f8e050"/>
      <stop offset="100%" stop-color="#e09020"/>
    </linearGradient>
    <linearGradient id="dn-tunic" x1="0" y1="0" x2="0.18" y2="1">
      <stop offset="0%"  stop-color="#d84468"/>
      <stop offset="52%" stop-color="#aa2a44"/>
      <stop offset="100%" stop-color="#721828"/>
    </linearGradient>
    <!-- Skin: LINEAR gradient (top-to-bottom) — avoids radial "bald spot" at top -->
    <linearGradient id="dn-skin" x1="0" y1="0" x2="0" y2="1">
      <stop offset="0%"  stop-color="#fde8c8"/>
      <stop offset="70%" stop-color="#f2caa0"/>
      <stop offset="100%" stop-color="#daa878"/>
    </linearGradient>
    <linearGradient id="dn-hair" x1="0" y1="0" x2="0.3" y2="1">
      <stop offset="0%"  stop-color="#7a4820"/>
      <stop offset="50%" stop-color="#5a3010"/>
      <stop offset="100%" stop-color="#3a1c08"/>
    </linearGradient>
    <linearGradient id="dn-belt" x1="0" y1="0" x2="1" y2="0">
      <stop offset="0%"  stop-color="#c89818"/>
      <stop offset="50%" stop-color="#f8e060"/>
      <stop offset="100%" stop-color="#c89818"/>
    </linearGradient>
    <radialGradient id="dn-spark" cx="50%" cy="50%" r="50%">
      <stop offset="0%"  stop-color="#fffff8"/>
      <stop offset="55%" stop-color="#f8e858"/>
      <stop offset="100%" stop-color="#e0a020"/>
    </radialGradient>
    <linearGradient id="dn-frame" x1="0" y1="0" x2="1" y2="1">
      <stop offset="0%"  stop-color="#f8d040"/>
      <stop offset="42%" stop-color="#e87858"/>
      <stop offset="70%" stop-color="#f8d040"/>
      <stop offset="100%" stop-color="#e87858"/>
    </linearGradient>
    <linearGradient id="dn-panel" x1="0" y1="0" x2="0" y2="1">
      <stop offset="0%"  stop-color="#020510" stop-opacity="0.97"/>
      <stop offset="100%" stop-color="#010208" stop-opacity="1"/>
    </linearGradient>
    <filter id="dn-sg" x="-30%" y="-30%" width="160%" height="160%">
      <feGaussianBlur stdDeviation="11" result="b"/>
      <feMerge><feMergeNode in="b"/><feMergeNode in="SourceGraphic"/></feMerge>
    </filter>
    <filter id="dn-gf" x="-30%" y="-30%" width="160%" height="160%">
      <feGaussianBlur stdDeviation="5" result="b"/>
      <feMerge><feMergeNode in="b"/><feMergeNode in="SourceGraphic"/></feMerge>
    </filter>
    <filter id="dn-sp" x="-120%" y="-120%" width="340%" height="340%">
      <feGaussianBlur stdDeviation="3" result="b"/>
      <feMerge><feMergeNode in="b"/><feMergeNode in="SourceGraphic"/></feMerge>
    </filter>
    <filter id="dn-hr" x="-20%" y="-20%" width="140%" height="140%">
      <feGaussianBlur stdDeviation="2.5" result="b"/>
      <feMerge><feMergeNode in="b"/><feMergeNode in="SourceGraphic"/></feMerge>
    </filter>
  </defs>

  <style>
    @keyframes haloPulse  { 0%,100%{opacity:.85} 50%{opacity:1.0} }
    @keyframes sunSpin    { from{transform:rotate(0deg)} to{transform:rotate(360deg)} }
    @keyframes rayL       { 0%,100%{opacity:.90} 50%{opacity:.50} }
    @keyframes rayR       { 0%,100%{opacity:.50} 50%{opacity:.90} }
    @keyframes twinkle    { 0%,100%{opacity:0;transform:scale(.6)} 50%{opacity:1;transform:scale(1.2)} }
    @keyframes twinkleB   { 0%,100%{opacity:1;transform:scale(1)} 50%{opacity:.1;transform:scale(.5)} }
    @keyframes heartBeat  { 0%,100%{transform:scale(1)} 15%{transform:scale(1.10)} 45%{transform:scale(1.07)} 60%{transform:scale(1)} }
    @keyframes handGlow   { 0%,100%{opacity:.28} 50%{opacity:.55} }
    @keyframes gloryBrth  { 0%,100%{opacity:.85} 50%{opacity:1.0} }
    .halo-glow { animation: haloPulse 3.2s ease-in-out infinite; }
    .sunburst  { animation: sunSpin 32s linear infinite; transform-origin: 200px 148px; }
    .ray-left  { animation: rayL 4.5s ease-in-out infinite; }
    .ray-right { animation: rayR 4.5s ease-in-out infinite; }
    .sp1 { animation: twinkle  2.8s ease-in-out infinite; }
    .sp2 { animation: twinkleB 3.4s ease-in-out infinite; }
    .sp3 { animation: twinkle  4.1s ease-in-out .8s infinite; }
    .sp4 { animation: twinkleB 2.5s ease-in-out 1.2s infinite; }
    .sp5 { animation: twinkle  3.8s ease-in-out .4s infinite; }
    .sp6 { animation: twinkleB 4.6s ease-in-out 2s infinite; }
    .heart { animation: heartBeat 2.2s ease-in-out infinite; transform-origin: 180px 276px; }
    .hray  { animation: handGlow 3.0s ease-in-out infinite; }
    .glory { animation: gloryBrth 5s ease-in-out infinite; }
  </style>

  <!-- BACKGROUND -->
  <rect width="400" height="560" fill="url(#dn-bg)"/>
  <ellipse class="glory" cx="200" cy="240" rx="192" ry="238" fill="url(#dn-glory)"/>
  <ellipse cx="200" cy="330" rx="155" ry="178" fill="url(#dn-rose)"/>

  <!-- SPARKLES -->
  <g filter="url(#dn-sp)">
    <g class="sp1"><circle cx="48"  cy="88"  r="3"   fill="url(#dn-spark)" opacity=".80"/>
      <polygon points="48,80 50,87 48,94 46,87"   fill="#fffff0" opacity=".72"/>
      <polygon points="40,87 48,89 56,87 48,85"   fill="#fffff0" opacity=".72"/>
    </g>
    <g class="sp2"><circle cx="322" cy="58"  r="2.6" fill="url(#dn-spark)" opacity=".75"/>
      <polygon points="322,50 324,57 322,64 320,57" fill="#fffff0" opacity=".68"/>
      <polygon points="314,57 322,59 330,57 322,55" fill="#fffff0" opacity=".68"/>
    </g>
    <g class="sp3"><circle cx="372" cy="290" r="2.2" fill="url(#dn-spark)" opacity=".65"/>
      <polygon points="372,282 374,289 372,296 370,289" fill="#fffff0" opacity=".60"/>
      <polygon points="364,289 372,291 380,289 372,287" fill="#fffff0" opacity=".60"/>
    </g>
    <g class="sp4"><circle cx="30"  cy="310" r="2"   fill="url(#dn-spark)" opacity=".62"/>
      <polygon points="30,302 32,309 30,316 28,309"  fill="#fffff0" opacity=".58"/>
      <polygon points="22,309 30,311 38,309 30,307"  fill="#fffff0" opacity=".58"/>
    </g>
    <g class="sp5"><circle cx="288" cy="26"  r="2"   fill="url(#dn-spark)" opacity=".68"/>
      <polygon points="288,18 290,25 288,32 286,25"  fill="#fffff0" opacity=".62"/>
      <polygon points="280,25 288,27 296,25 288,23"  fill="#fffff0" opacity=".62"/>
    </g>
    <g class="sp6"><circle cx="110" cy="33"  r="2.4" fill="url(#dn-spark)" opacity=".70"/>
      <polygon points="110,25 112,32 110,39 108,32"  fill="#fffff0" opacity=".65"/>
      <polygon points="102,32 110,34 118,32 110,30"  fill="#fffff0" opacity=".65"/>
    </g>
    <g class="sp1">
      <circle cx="200" cy="50" r="4.5" fill="#fffff0" opacity=".80"/>
      <polygon points="200,40 203,49 200,58 197,49" fill="#fffff0" opacity=".75"/>
      <polygon points="190,49 199,52 208,49 199,46" fill="#fffff0" opacity=".75"/>
    </g>
  </g>

  <!-- RAYS -->
  <g class="ray-left">
    <polygon points="198,258 0,560 0,368"  fill="url(#dn-r1)"/>
    <polygon points="198,258 0,462 72,560" fill="url(#dn-r1)" opacity=".78"/>
    <polygon points="198,258 0,560 0,510"  fill="url(#dn-r1)" opacity=".38"/>
  </g>
  <g class="ray-right">
    <polygon points="202,258 400,462 328,560" fill="url(#dn-r2)"/>
    <polygon points="202,258 400,368 400,560" fill="url(#dn-r2)" opacity=".78"/>
    <polygon points="202,258 400,510 400,560" fill="url(#dn-r2)" opacity=".38"/>
  </g>

  <!-- HALO -->
  <circle class="halo-glow" cx="200" cy="148" r="82" fill="url(#dn-halo)" filter="url(#dn-sg)"/>
  <g class="sunburst">
    <line x1="200" y1="83"  x2="200" y2="67"  stroke="#f8e848" stroke-width="2.5" opacity=".82"/>
    <line x1="244" y1="104" x2="253" y2="95"  stroke="#f8e848" stroke-width="2.5" opacity=".80"/>
    <line x1="265" y1="148" x2="281" y2="148" stroke="#f8e848" stroke-width="2.5" opacity=".80"/>
    <line x1="244" y1="192" x2="253" y2="201" stroke="#f8e848" stroke-width="2.5" opacity=".78"/>
    <line x1="200" y1="213" x2="200" y2="229" stroke="#f8e848" stroke-width="2.5" opacity=".75"/>
    <line x1="156" y1="192" x2="147" y2="201" stroke="#f8e848" stroke-width="2.5" opacity=".78"/>
    <line x1="135" y1="148" x2="119" y2="148" stroke="#f8e848" stroke-width="2.5" opacity=".80"/>
    <line x1="156" y1="104" x2="147" y2="95"  stroke="#f8e848" stroke-width="2.5" opacity=".80"/>
    <line x1="224" y1="87"  x2="231" y2="79"  stroke="#f8d848" stroke-width="1.3" opacity=".55"/>
    <line x1="258" y1="122" x2="267" y2="115" stroke="#f8d848" stroke-width="1.3" opacity=".55"/>
    <line x1="258" y1="174" x2="267" y2="181" stroke="#f8d848" stroke-width="1.3" opacity=".52"/>
    <line x1="224" y1="209" x2="231" y2="217" stroke="#f8d848" stroke-width="1.3" opacity=".52"/>
    <line x1="176" y1="209" x2="169" y2="217" stroke="#f8d848" stroke-width="1.3" opacity=".52"/>
    <line x1="142" y1="174" x2="133" y2="181" stroke="#f8d848" stroke-width="1.3" opacity=".52"/>
    <line x1="142" y1="122" x2="133" y2="115" stroke="#f8d848" stroke-width="1.3" opacity=".55"/>
    <line x1="176" y1="87"  x2="169" y2="79"  stroke="#f8d848" stroke-width="1.3" opacity=".55"/>
  </g>
  <circle class="halo-glow" cx="200" cy="148" r="64" fill="none" stroke="url(#dn-gold)" stroke-width="3.2" opacity=".96" filter="url(#dn-gf)"/>
  <circle cx="200" cy="148" r="59" fill="none" stroke="#fffce0" stroke-width="1.0" opacity=".55"/>
  <circle cx="200" cy="148" r="69" fill="none" stroke="#e8b820" stroke-width="0.8" opacity=".32"/>

  <!-- TUNIC -->
  <path d="M 155,228 C 138,255 122,312 116,460 L 284,460 C 278,312 262,255 245,228 Z" fill="url(#dn-tunic)" opacity=".98"/>
  <line x1="170" y1="244" x2="156" y2="454" stroke="#8a1e30" stroke-width="1.5" opacity=".28"/>
  <line x1="200" y1="238" x2="200" y2="456" stroke="#9a2438" stroke-width="1.0" opacity=".18"/>
  <line x1="230" y1="244" x2="244" y2="454" stroke="#8a1e30" stroke-width="1.5" opacity=".28"/>
  <path d="M 116,460 Q 200,468 284,460" fill="none" stroke="#701828" stroke-width="2.2" opacity=".45"/>

  <!-- BELT -->
  <path d="M 148,310 Q 200,318 252,310" fill="none" stroke="url(#dn-belt)" stroke-width="4.8" stroke-linecap="round" opacity=".90"/>
  <ellipse cx="200" cy="313" rx="10" ry="7" fill="#f8e060" opacity=".80"/>
  <line x1="196" y1="319" x2="191" y2="346" stroke="url(#dn-belt)" stroke-width="3.0" stroke-linecap="round" opacity=".70"/>
  <line x1="204" y1="319" x2="209" y2="346" stroke="url(#dn-belt)" stroke-width="3.0" stroke-linecap="round" opacity=".70"/>
  <ellipse cx="190" cy="350" rx="5.5" ry="6.5" fill="#f0d040" opacity=".62"/>
  <ellipse cx="210" cy="350" rx="5.5" ry="6.5" fill="#f0d040" opacity=".62"/>

  <!-- SACRED HEART (animated) -->
  <g class="heart">
    <path d="M 180,275 C 178,271 171,268 169,273 C 167,278 170,283 180,289 C 190,283 193,278 191,273 C 189,268 182,271 180,275 Z" fill="#e84060" opacity=".85"/>
    <path d="M 180,275 C 178,271 171,268 169,273 C 167,278 170,283 180,289 C 190,283 193,278 191,273 C 189,268 182,271 180,275 Z" fill="none" stroke="#f8d040" stroke-width="1.0" opacity=".72"/>
    <line x1="180" y1="263" x2="180" y2="270" stroke="#f8d040" stroke-width="1.8" opacity=".78"/>
    <line x1="176" y1="266" x2="184" y2="266" stroke="#f8d040" stroke-width="1.8" opacity=".78"/>
    <path d="M 179,262 C 178,258 181,254 180,250 C 179,254 177,258 179,262 Z" fill="#f8c030" opacity=".68"/>
  </g>

  <!-- LEFT ARM + HAND -->
  <path d="M 155,228 C 140,214 126,206 115,200" stroke="url(#dn-tunic)" stroke-width="26" fill="none" stroke-linecap="round"/>
  <path d="M 115,200 C 106,196 98,193 90,192"   stroke="url(#dn-skin)"  stroke-width="18" fill="none" stroke-linecap="round"/>
  <ellipse cx="86" cy="192" rx="17" ry="14" fill="url(#dn-skin)" transform="rotate(-20,86,192)"/>
  <ellipse cx="72"  cy="188" rx="9.5" ry="6.5" fill="url(#dn-skin)" transform="rotate(-30,72,188)"/>
  <ellipse cx="80"  cy="181" rx="9.5" ry="6.5" fill="url(#dn-skin)" transform="rotate(-16,80,181)"/>
  <ellipse cx="91"  cy="178" rx="9.5" ry="6.5" fill="url(#dn-skin)" transform="rotate(-4,91,178)"/>
  <ellipse cx="101" cy="180" rx="9.5" ry="6.5" fill="url(#dn-skin)" transform="rotate(9,101,180)"/>
  <ellipse cx="73"  cy="200" rx="7.5" ry="5.5" fill="url(#dn-skin)" transform="rotate(-40,73,200)"/>
  <circle cx="75"  cy="186" r="1.5" fill="#d8a878" opacity=".35"/>
  <circle cx="83"  cy="179" r="1.5" fill="#d8a878" opacity=".35"/>
  <circle cx="93"  cy="176" r="1.5" fill="#d8a878" opacity=".35"/>
  <g class="hray" filter="url(#dn-hr)">
    <polygon points="82,186 38,158 32,186"   fill="#f8e840"/>
    <polygon points="82,186 28,208 38,234"   fill="#f8e840" opacity=".75"/>
    <polygon points="82,186 52,152 66,144"   fill="#f8e840" opacity=".60"/>
  </g>
  <g class="sp3" filter="url(#dn-sp)">
    <circle cx="62" cy="182" r="3.5" fill="url(#dn-spark)"/>
    <polygon points="62,174 64,181 62,188 60,181" fill="#fffff0" opacity=".80"/>
    <polygon points="54,181 62,183 70,181 62,179" fill="#fffff0" opacity=".80"/>
  </g>

  <!-- RIGHT ARM + HAND -->
  <path d="M 245,228 C 260,214 274,206 285,200" stroke="url(#dn-tunic)" stroke-width="26" fill="none" stroke-linecap="round"/>
  <path d="M 285,200 C 294,196 302,193 310,192"  stroke="url(#dn-skin)"  stroke-width="18" fill="none" stroke-linecap="round"/>
  <ellipse cx="314" cy="192" rx="17" ry="14" fill="url(#dn-skin)" transform="rotate(20,314,192)"/>
  <ellipse cx="328" cy="188" rx="9.5" ry="6.5" fill="url(#dn-skin)" transform="rotate(30,328,188)"/>
  <ellipse cx="320" cy="181" rx="9.5" ry="6.5" fill="url(#dn-skin)" transform="rotate(16,320,181)"/>
  <ellipse cx="309" cy="178" rx="9.5" ry="6.5" fill="url(#dn-skin)" transform="rotate(4,309,178)"/>
  <ellipse cx="299" cy="180" rx="9.5" ry="6.5" fill="url(#dn-skin)" transform="rotate(-9,299,180)"/>
  <ellipse cx="327" cy="200" rx="7.5" ry="5.5" fill="url(#dn-skin)" transform="rotate(40,327,200)"/>
  <circle cx="325" cy="186" r="1.5" fill="#d8a878" opacity=".35"/>
  <circle cx="317" cy="179" r="1.5" fill="#d8a878" opacity=".35"/>
  <circle cx="307" cy="176" r="1.5" fill="#d8a878" opacity=".35"/>
  <g class="hray" filter="url(#dn-hr)">
    <polygon points="318,186 362,158 368,186"  fill="#f8e840"/>
    <polygon points="318,186 372,208 362,234"  fill="#f8e840" opacity=".75"/>
    <polygon points="318,186 348,152 334,144"  fill="#f8e840" opacity=".60"/>
  </g>
  <g class="sp4" filter="url(#dn-sp)">
    <circle cx="338" cy="182" r="3.5" fill="url(#dn-spark)"/>
    <polygon points="338,174 340,181 338,188 336,181" fill="#fffff0" opacity=".80"/>
    <polygon points="330,181 338,183 346,181 338,179" fill="#fffff0" opacity=".80"/>
  </g>

  <!-- CLOUD / FEET -->
  <ellipse cx="200" cy="463" rx="66" ry="16" fill="#f0e8e0" opacity=".20"/>
  <ellipse cx="174" cy="458" rx="22" ry="9" fill="url(#dn-skin)" opacity=".88"/>
  <ellipse cx="226" cy="458" rx="22" ry="9" fill="url(#dn-skin)" opacity=".88"/>
  <path d="M 158,455 Q 172,451 188,455" fill="none" stroke="#d8a878" stroke-width="1" opacity=".35"/>
  <path d="M 212,455 Q 228,451 242,455" fill="none" stroke="#d8a878" stroke-width="1" opacity=".35"/>

  <!-- NECK -->
  <rect x="184" y="206" width="32" height="26" rx="11" fill="url(#dn-skin)" opacity=".98"/>
  <ellipse cx="200" cy="224" rx="19" ry="11" fill="url(#dn-skin)" opacity=".98"/>

  <!-- ─────────────────────────────────────────── -->
  <!-- HEAD — big round CHILD face                 -->
  <!-- ─────────────────────────────────────────── -->
  <!-- Skin base — NO radial gradient at top -->
  <ellipse cx="200" cy="158" rx="56" ry="60" fill="url(#dn-skin)"/>
  <ellipse cx="200" cy="168" rx="58" ry="52" fill="url(#dn-skin)"/>
  <!-- Chubby cheek blush -->
  <ellipse cx="163" cy="185" rx="14" ry="10" fill="#f0a888" opacity=".22"/>
  <ellipse cx="237" cy="185" rx="14" ry="10" fill="#f0a888" opacity=".22"/>

  <!-- ─────────────────────────────────────────── -->
  <!-- HAIR — FULL SOLID COVERAGE                  -->
  <!-- Layer 1: solid dark base covering all skull -->
  <!-- ─────────────────────────────────────────── -->
  <path d="M 144,165
           C 142,128 150,96 162,82
           C 172,68 184,62 200,60
           C 216,62 228,68 238,82
           C 250,96 258,128 256,165
           C 254,148 250,128 240,118
           C 230,96 218,84 200,82
           C 182,84 170,96 160,118
           C 150,128 146,148 144,165 Z"
        fill="#4a2808"/>
  <!-- Layer 2: fills the forehead hairline completely -->
  <path d="M 148,160 C 150,132 158,108 168,96 C 176,84 186,78 200,76
           C 214,78 224,84 232,96 C 242,108 250,132 252,160"
        fill="#5a3010" opacity=".95"/>
  <!-- Side curtains — thick, covering temples down to ears -->
  <path d="M 144,165 C 140,178 138,195 140,212"
        stroke="#5a3010" stroke-width="18" fill="none" stroke-linecap="round"/>
  <path d="M 256,165 C 260,178 262,195 260,212"
        stroke="#5a3010" stroke-width="18" fill="none" stroke-linecap="round"/>
  <!-- Curl bumps across top — 7 overlapping ellipses -->
  <ellipse cx="162" cy="96"  rx="16" ry="13" fill="#5a3010"/>
  <ellipse cx="176" cy="84"  rx="16" ry="13" fill="#5a3010"/>
  <ellipse cx="190" cy="76"  rx="16" ry="13" fill="#5a3010"/>
  <ellipse cx="200" cy="73"  rx="18" ry="14" fill="#5a3010"/>
  <ellipse cx="210" cy="76"  rx="16" ry="13" fill="#5a3010"/>
  <ellipse cx="224" cy="84"  rx="16" ry="13" fill="#5a3010"/>
  <ellipse cx="238" cy="96"  rx="16" ry="13" fill="#5a3010"/>
  <!-- Curl highlight gloss -->
  <path d="M 166,100 C 178,88 192,80 200,78 C 208,80 222,88 234,100"
        fill="none" stroke="#c08040" stroke-width="4" stroke-linecap="round" opacity=".38"/>
  <!-- Curl highlight dots -->
  <circle cx="176" cy="82"  r="4.5" fill="#c08040" opacity=".36"/>
  <circle cx="190" cy="74"  r="4.5" fill="#c08040" opacity=".40"/>
  <circle cx="200" cy="71"  r="5.5" fill="#c08040" opacity=".42"/>
  <circle cx="210" cy="74"  r="4.5" fill="#c08040" opacity=".40"/>
  <circle cx="224" cy="82"  r="4.5" fill="#c08040" opacity=".36"/>

  <!-- EARS -->
  <ellipse cx="145" cy="172" rx="11" ry="14" fill="url(#dn-skin)" opacity=".88"/>
  <ellipse cx="255" cy="172" rx="11" ry="14" fill="url(#dn-skin)" opacity=".88"/>

  <!-- EYES — big, warm, child -->
  <ellipse cx="181" cy="163" rx="14" ry="10.5" fill="#f4deb8"/>
  <ellipse cx="181" cy="163" rx="10"  ry="9"   fill="#3a2210"/>
  <ellipse cx="181" cy="163" rx="6.5" ry="6.5" fill="#180c06"/>
  <circle  cx="183" cy="159" r="2.8" fill="white" opacity=".90"/>
  <circle  cx="178" cy="166" r="1.2" fill="white" opacity=".38"/>
  <path d="M 168,158 Q 181,155 195,158" stroke="#2a1408" stroke-width="1.8" fill="none" stroke-linecap="round"/>
  <path d="M 169,169 Q 181,173 194,169" stroke="#c8a880" stroke-width="0.8" fill="none" opacity=".30"/>
  <ellipse cx="219" cy="163" rx="14" ry="10.5" fill="#f4deb8"/>
  <ellipse cx="219" cy="163" rx="10"  ry="9"   fill="#3a2210"/>
  <ellipse cx="219" cy="163" rx="6.5" ry="6.5" fill="#180c06"/>
  <circle  cx="221" cy="159" r="2.8" fill="white" opacity=".90"/>
  <circle  cx="216" cy="166" r="1.2" fill="white" opacity=".38"/>
  <path d="M 205,158 Q 219,155 233,158" stroke="#2a1408" stroke-width="1.8" fill="none" stroke-linecap="round"/>
  <path d="M 206,169 Q 219,173 232,169" stroke="#c8a880" stroke-width="0.8" fill="none" opacity=".30"/>
  <!-- Eyebrows — short child arches -->
  <path d="M 169,152 Q 181,148 194,152" stroke="#4a2808" stroke-width="2.3" fill="none" stroke-linecap="round"/>
  <path d="M 206,152 Q 219,148 231,152" stroke="#4a2808" stroke-width="2.3" fill="none" stroke-linecap="round"/>

  <!-- NOSE — tiny button -->
  <ellipse cx="196" cy="180" rx="4.8" ry="3.8" fill="#d8a878" opacity=".28"/>
  <ellipse cx="204" cy="180" rx="4.8" ry="3.8" fill="#d8a878" opacity=".28"/>
  <path d="M 200,174 L 195,180 Q 200,183 205,180 Z" fill="#c89068" opacity=".25"/>

  <!-- MOUTH — sweet baby smile -->
  <path d="M 190,191 Q 200,188 210,191" fill="#c8807a" opacity=".28"/>
  <path d="M 190,193 Q 200,203 210,193" fill="none" stroke="#b07868" stroke-width="2.2" stroke-linecap="round"/>
  <circle cx="190" cy="193" r="2" fill="#d8a080" opacity=".22"/>
  <circle cx="210" cy="193" r="2" fill="#d8a080" opacity=".22"/>

  <!-- FRAME -->
  <rect x="10" y="10" width="380" height="540" rx="6" fill="none" stroke="url(#dn-frame)" stroke-width="2.8" opacity=".88"/>
  <rect x="14" y="14" width="372" height="532" rx="4" fill="none" stroke="#f0c840" stroke-width="0.9" opacity=".45"/>
  <rect x="17" y="17" width="366" height="526" rx="3" fill="none" stroke="#e87858" stroke-width="0.5" opacity=".28"/>
  <path d="M 10,38 L 10,10 L 38,10"    fill="none" stroke="url(#dn-frame)" stroke-width="4" stroke-linecap="round"/>
  <path d="M 362,10 L 390,10 L 390,38"  fill="none" stroke="url(#dn-frame)" stroke-width="4" stroke-linecap="round"/>
  <path d="M 10,512 L 10,540 L 38,540"  fill="none" stroke="url(#dn-frame)" stroke-width="4" stroke-linecap="round"/>
  <path d="M 362,540 L 390,540 L 390,512" fill="none" stroke="url(#dn-frame)" stroke-width="4" stroke-linecap="round"/>
  <polygon points="10,10 18,16 10,22 2,16"    fill="url(#dn-frame)" opacity=".78"/>
  <polygon points="390,10 398,16 390,22 382,16"  fill="url(#dn-frame)" opacity=".78"/>
  <polygon points="10,540 18,546 10,552 2,546"   fill="url(#dn-frame)" opacity=".78"/>
  <polygon points="390,540 398,546 390,552 382,546" fill="url(#dn-frame)" opacity=".78"/>

  <!-- NAME PANEL — BILINGÜE -->
  <rect x="10" y="490" width="380" height="60" fill="url(#dn-panel)" opacity=".98"/>
  <line x1="10" y1="490" x2="390" y2="490" stroke="url(#dn-frame)" stroke-width="1.8" opacity=".78"/>
  <!-- ES -->
  <text x="100" y="510" text-anchor="middle" font-family="Georgia,'Times New Roman',serif"
        font-size="14" font-weight="bold" letter-spacing="1.5" fill="#f8d840" opacity=".98">DIVINO NIÑO</text>
  <text x="100" y="526" text-anchor="middle" font-family="Georgia,'Times New Roman',serif"
        font-size="8.5" letter-spacing="1.5" fill="#f09060" opacity=".85">JESÚS · 20 DE JULIO</text>
  <!-- Divider -->
  <line x1="200" y1="496" x2="200" y2="544" stroke="url(#dn-frame)" stroke-width="0.9" opacity=".50"/>
  <!-- EN -->
  <text x="300" y="510" text-anchor="middle" font-family="Georgia,'Times New Roman',serif"
        font-size="14" font-weight="bold" letter-spacing="1.5" fill="#f8d840" opacity=".98">DIVINE CHILD</text>
  <text x="300" y="526" text-anchor="middle" font-family="Georgia,'Times New Roman',serif"
        font-size="8.5" letter-spacing="1.5" fill="#f09060" opacity=".85">JESUS · JULY 20</text>
  <!-- Tagline -->
  <text x="200" y="543" text-anchor="middle" font-family="Georgia,'Times New Roman',serif"
        font-size="7.5" letter-spacing="2.5" fill="#c09020" opacity=".65">YO REINO · I REIGN</text>
</svg>
