<svg xmlns="http://www.w3.org/2000/svg" viewBox="0 0 100 100" aria-label="Perdon">
  <defs>
    <radialGradient id="ep-bg" cx="50%" cy="35%" r="65%">
      <stop offset="0%" stop-color="#233d2b" stop-opacity="0.96"/>
      <stop offset="100%" stop-color="#08140d" stop-opacity="1"/>
    </radialGradient>
    <linearGradient id="ep-gold" x1="0" y1="0" x2="1" y2="1">
      <stop offset="0%" stop-color="#fff1b8"/>
      <stop offset="100%" stop-color="#c9a84c"/>
    </linearGradient>
    <linearGradient id="ep-leaf" x1="0" y1="0" x2="1" y2="1">
      <stop offset="0%" stop-color="#d7ffcf"/>
      <stop offset="100%" stop-color="#7fcf88"/>
    </linearGradient>
  </defs>
  <rect width="100" height="100" rx="18" fill="url(#ep-bg)"/>
  <circle cx="50" cy="50" r="24" fill="rgba(255,255,255,0.03)"/>
  <path d="M28 58 C35 49, 42 42, 50 42 C58 42, 65 49, 72 58" fill="none" stroke="url(#ep-gold)" stroke-width="2.6" stroke-linecap="round"/>
  <path d="M22 60 C31 71, 40 76, 50 76 C60 76, 69 71, 78 60" fill="none" stroke="#8fd3ff" stroke-width="3.6" stroke-linecap="round" opacity="0.78"/>
  <path d="M39 39 C42 31, 49 27, 50 19 C51 27, 58 31, 61 39" fill="none" stroke="url(#ep-gold)" stroke-width="2.3" stroke-linecap="round"/>
  <path d="M34 48 C29 44, 26 39, 27 34 C34 34, 39 38, 42 44" fill="url(#ep-leaf)" opacity="0.9"/>
  <path d="M66 48 C71 44, 74 39, 73 34 C66 34, 61 38, 58 44" fill="url(#ep-leaf)" opacity="0.9"/>
  <circle cx="50" cy="50" r="6" fill="#fff5cf" opacity="0.95"/>
</svg>
