<svg xmlns="http://www.w3.org/2000/svg" viewBox="0 0 400 600" role="img" aria-label="Virgen de Guadalupe simbolica">
  <rect width="400" height="600" fill="#0a0810"/>
  <circle cx="200" cy="150" r="64" fill="none" stroke="#e8c97a" stroke-width="3" opacity="0.78"/>
  <path d="M154 186 Q200 144 246 186 L268 398 Q200 428 132 398 Z" fill="#d9795e"/>
  <path d="M162 164 Q200 132 238 164 L256 326 Q200 346 144 326 Z" fill="#1a3a8a"/>
  <path d="M200 112 L206 126 L220 132 L206 138 L200 152 L194 138 L180 132 L194 126 Z" fill="#e8c97a"/>
  <path d="M166 220 Q185 240 200 280 Q215 240 234 220" fill="none" stroke="#fff6d0" stroke-width="4" stroke-linecap="round" opacity="0.75"/>
  <path d="M170 410 Q200 396 230 410 Q210 428 200 430 Q190 428 170 410Z" fill="#c9a84c" opacity="0.8"/>
  <text x="200" y="548" text-anchor="middle" font-family="Arial,sans-serif" font-size="10" fill="#c9a84c" letter-spacing="2">VIRGEN DE GUADALUPE</text>
</svg>