<svg xmlns="http://www.w3.org/2000/svg" viewBox="0 0 400 600" role="img" aria-label="Nuestra Señora de Guadalupe">
  <rect width="400" height="600" fill="#0a0810"/>
  <circle cx="200" cy="150" r="58" fill="none" stroke="#e8c97a" stroke-width="3" opacity="0.65"/>
  <path d="M148 168 Q200 125 252 168 L276 398 Q200 426 124 398 Z" fill="#d9795e"/>
  <path d="M154 160 Q200 116 246 160 L256 324 Q200 340 144 324 Z" fill="#1a3a8a"/>
  <path d="M162 188 Q182 230 190 276" stroke="#d9795e" stroke-width="16" stroke-linecap="round" fill="none"/>
  <path d="M238 188 Q218 230 210 276" stroke="#1a3a8a" stroke-width="16" stroke-linecap="round" fill="none"/>
  <ellipse cx="200" cy="284" rx="24" ry="12" fill="#c89060"/>
  <circle cx="200" cy="108" r="30" fill="#c89060"/>
  <path d="M174 108 Q177 76 200 72 Q223 76 226 108 Q218 88 200 86 Q182 88 174 108Z" fill="#12080c"/>
  <path d="M178 100 Q200 86 222 100" fill="none" stroke="#b8d4e8" stroke-width="5"/>
  <circle cx="200" cy="108" r="42" fill="none" stroke="#e8c97a" stroke-width="2" opacity="0.55"/>
  <path d="M172 414 Q200 404 228 414 Q210 428 200 430 Q190 428 172 414Z" fill="#c9a84c" opacity="0.7"/>
  <text x="200" y="548" text-anchor="middle" font-family="Arial,sans-serif" font-size="10" fill="#c9a84c" letter-spacing="2">VIRGEN DE GUADALUPE</text>
</svg>