<svg xmlns="http://www.w3.org/2000/svg" viewBox="0 0 400 600" role="img" aria-label="Nuestra Señora de Lourdes simbolica">
  <rect width="400" height="600" fill="#081225"/>
  <circle cx="200" cy="150" r="64" fill="none" stroke="#e8c97a" stroke-width="3" opacity="0.75"/>
  <path d="M150 186 Q200 144 250 186 L270 398 Q200 430 130 398 Z" fill="#f7f7f7"/>
  <path d="M166 166 Q200 132 234 166 L250 320 Q200 340 150 320 Z" fill="#b8d4e8" opacity="0.85"/>
  <path d="M200 112 L205 126 L218 132 L205 138 L200 152 L195 138 L182 132 L195 126 Z" fill="#e8c97a"/>
  <path d="M168 414 Q200 404 232 414 Q210 430 200 432 Q190 430 168 414Z" fill="#c9a84c" opacity="0.82"/>
  <path d="M182 278 Q200 250 218 278 Q210 292 200 304 Q190 292 182 278Z" fill="#8cc8ff" opacity="0.7"/>
  <text x="200" y="548" text-anchor="middle" font-family="Arial,sans-serif" font-size="10" fill="#c9a84c" letter-spacing="2">NUESTRA SEÑORA DE LOURDES</text>
</svg>