<svg xmlns="http://www.w3.org/2000/svg" viewBox="0 0 400 560" width="400" height="560">
  <defs>
    <!-- Background: deep Carmel night sky, blue-indigo -->
    <linearGradient id="nsc-bg" x1="0" y1="0" x2="0" y2="1">
      <stop offset="0%"  stop-color="#020610"/>
      <stop offset="100%" stop-color="#050d1e"/>
    </linearGradient>
    <!-- Ray left: Marian blue-gold -->
    <linearGradient id="nsc-r1" x1="0" y1="0" x2="1" y2="1">
      <stop offset="0%"  stop-color="#c8a010" stop-opacity="0.88"/>
      <stop offset="100%" stop-color="#203858" stop-opacity="0.0"/>
    </linearGradient>
    <!-- Ray right: warm celestial gold -->
    <linearGradient id="nsc-r2" x1="1" y1="0" x2="0" y2="1">
      <stop offset="0%"  stop-color="#e0c040" stop-opacity="0.82"/>
      <stop offset="100%" stop-color="#182840" stop-opacity="0.0"/>
    </linearGradient>
    <!-- Halo/aura: brilliant white-gold -->
    <radialGradient id="nsc-halo" cx="50%" cy="50%" r="50%">
      <stop offset="0%"  stop-color="#fffff0" stop-opacity="0.75"/>
      <stop offset="45%" stop-color="#f0d840" stop-opacity="0.30"/>
      <stop offset="100%" stop-color="#8060a0" stop-opacity="0.0"/>
    </radialGradient>
    <!-- Full body aura: blue Marian glow -->
    <radialGradient id="nsc-bodyglow" cx="50%" cy="46%" r="40%">
      <stop offset="0%"  stop-color="#102048" stop-opacity="0.60"/>
      <stop offset="100%" stop-color="#102048" stop-opacity="0.0"/>
    </radialGradient>
    <!-- Blue mantle -->
    <linearGradient id="nsc-mantle" x1="0" y1="0" x2="0.2" y2="1">
      <stop offset="0%"  stop-color="#1030a0"/>
      <stop offset="50%" stop-color="#082078"/>
      <stop offset="100%" stop-color="#040e40"/>
    </linearGradient>
    <!-- Mantle deep fold shadow -->
    <linearGradient id="nsc-mantledark" x1="0" y1="0" x2="1" y2="0">
      <stop offset="0%"  stop-color="#040c30"/>
      <stop offset="100%" stop-color="#1a3888"/>
    </linearGradient>
    <!-- White tunic -->
    <linearGradient id="nsc-tunic" x1="0" y1="0" x2="0.1" y2="1">
      <stop offset="0%"  stop-color="#f8f4ec"/>
      <stop offset="60%" stop-color="#e0dcd0"/>
      <stop offset="100%" stop-color="#c0bcb0"/>
    </linearGradient>
    <!-- Brown scapular -->
    <linearGradient id="nsc-scap" x1="0" y1="0" x2="0.1" y2="1">
      <stop offset="0%"  stop-color="#6b3a10"/>
      <stop offset="50%" stop-color="#4a2808"/>
      <stop offset="100%" stop-color="#2a1404"/>
    </linearGradient>
    <!-- Skin tone: gentle Mediterranean -->
    <radialGradient id="nsc-skin" cx="50%" cy="35%" r="55%">
      <stop offset="0%"  stop-color="#f2c898"/>
      <stop offset="65%" stop-color="#d8a870"/>
      <stop offset="100%" stop-color="#b07848"/>
    </radialGradient>
    <!-- Child Jesus skin -->
    <radialGradient id="nsc-childskin" cx="50%" cy="40%" r="55%">
      <stop offset="0%"  stop-color="#f5d0a0"/>
      <stop offset="100%" stop-color="#d4a068"/>
    </radialGradient>
    <!-- Gold crown gradient -->
    <linearGradient id="nsc-crown" x1="0" y1="0" x2="0" y2="1">
      <stop offset="0%"  stop-color="#ffe060"/>
      <stop offset="50%" stop-color="#e0a818"/>
      <stop offset="100%" stop-color="#a07010"/>
    </linearGradient>
    <!-- Star gold -->
    <radialGradient id="nsc-star" cx="50%" cy="50%" r="50%">
      <stop offset="0%"  stop-color="#fff8a0"/>
      <stop offset="100%" stop-color="#e0b010"/>
    </radialGradient>
    <!-- Halo ring gold -->
    <linearGradient id="nsc-gold" x1="0" y1="0" x2="1" y2="1">
      <stop offset="0%"  stop-color="#fff0a0"/>
      <stop offset="50%" stop-color="#e8c030"/>
      <stop offset="100%" stop-color="#b08010"/>
    </linearGradient>
    <!-- Frame -->
    <linearGradient id="nsc-frame" x1="0" y1="0" x2="1" y2="1">
      <stop offset="0%"  stop-color="#80a0ff"/>
      <stop offset="50%" stop-color="#f0c030"/>
      <stop offset="100%" stop-color="#80a0ff"/>
    </linearGradient>
    <!-- Panel -->
    <linearGradient id="nsc-panel" x1="0" y1="0" x2="0" y2="1">
      <stop offset="0%"  stop-color="#020610" stop-opacity="0.96"/>
      <stop offset="100%" stop-color="#010308" stop-opacity="1"/>
    </linearGradient>
    <!-- Glow filter -->
    <filter id="nsc-sg" x="-25%" y="-25%" width="150%" height="150%">
      <feGaussianBlur stdDeviation="8" result="b"/>
      <feMerge><feMergeNode in="b"/><feMergeNode in="SourceGraphic"/></feMerge>
    </filter>
    <filter id="nsc-gf" x="-30%" y="-30%" width="160%" height="160%">
      <feGaussianBlur stdDeviation="5" result="b"/>
      <feMerge><feMergeNode in="b"/><feMergeNode in="SourceGraphic"/></feMerge>
    </filter>
    <filter id="nsc-starglow" x="-80%" y="-80%" width="260%" height="260%">
      <feGaussianBlur stdDeviation="2.5" result="b"/>
      <feMerge><feMergeNode in="b"/><feMergeNode in="SourceGraphic"/></feMerge>
    </filter>
  </defs>

  <!-- ── BACKGROUND ── -->
  <rect width="400" height="560" fill="url(#nsc-bg)"/>

  <!-- ── MOUNT CARMEL SILHOUETTE (distant hills at base) ── -->
  <path d="M 0,490 C 40,470 80,455 120,460 C 155,465 180,475 200,470
           C 220,475 245,465 280,460 C 320,455 360,470 400,490 L 400,560 L 0,560 Z"
        fill="#0a1020" opacity="0.80"/>
  <path d="M 0,490 C 50,478 90,465 130,470 C 165,474 185,480 200,476
           C 215,480 235,474 270,470 C 310,465 350,478 400,490"
        fill="none" stroke="#182840" stroke-width="1.5" opacity="0.50"/>

  <!-- ── AMBIENT GLOW ── -->
  <ellipse cx="200" cy="242" rx="160" ry="210" fill="url(#nsc-bodyglow)"/>

  <!-- ── 4 POLYGON RAYS from figure center ── -->
  <polygon points="198,265 0,560 0,400"    fill="url(#nsc-r1)" opacity="0.72"/>
  <polygon points="198,265 0,480 80,560"   fill="url(#nsc-r1)" opacity="0.50"/>
  <polygon points="202,265 400,480 320,560" fill="url(#nsc-r2)" opacity="0.50"/>
  <polygon points="202,265 400,400 400,560" fill="url(#nsc-r2)" opacity="0.72"/>

  <!-- ── HALO GLOW ── -->
  <circle cx="200" cy="138" r="72" fill="url(#nsc-halo)" filter="url(#nsc-sg)"/>

  <!-- ── CROWN OF 12 STARS (circling the head above halo) ── -->
  <!-- 12 small 5-pointed stars evenly placed around r=78 from center -->
  <!-- Star positions at 30° intervals from top: 90°,120°,150°,180°,210°,240°,270°,300°,330°,0°,30°,60° -->
  <g filter="url(#nsc-starglow)">
    <!-- Top (90°) -->
    <polygon points="200,55 202,62 209,62 203,67 205,74 200,70 195,74 197,67 191,62 198,62"
             fill="url(#nsc-star)" opacity="0.95"/>
    <!-- 120° -->
    <polygon points="267,74 269,81 276,81 270,86 272,93 267,89 262,93 264,86 258,81 265,81"
             fill="url(#nsc-star)" opacity="0.92"/>
    <!-- 150° -->
    <polygon points="313,115 315,122 322,122 316,127 318,134 313,130 308,134 310,127 304,122 311,122"
             fill="url(#nsc-star)" opacity="0.92"/>
    <!-- 180° (right) -->
    <polygon points="333,143 335,150 342,150 336,155 338,162 333,158 328,162 330,155 324,150 331,150"
             fill="url(#nsc-star)" opacity="0.90"/>
    <!-- 210° -->
    <polygon points="310,182 312,189 319,189 313,194 315,201 310,197 305,201 307,194 301,189 308,189"
             fill="url(#nsc-star)" opacity="0.88"/>
    <!-- 240° -->
    <polygon points="265,209 267,216 274,216 268,221 270,228 265,224 260,228 262,221 256,216 263,216"
             fill="url(#nsc-star)" opacity="0.85"/>
    <!-- 270° (bottom — below halo ring) -->
    <polygon points="200,217 202,224 209,224 203,229 205,236 200,232 195,236 197,229 191,224 198,224"
             fill="url(#nsc-star)" opacity="0.80"/>
    <!-- 300° -->
    <polygon points="135,209 137,216 144,216 138,221 140,228 135,224 130,228 132,221 126,216 133,216"
             fill="url(#nsc-star)" opacity="0.85"/>
    <!-- 330° -->
    <polygon points="90,182 92,189 99,189 93,194 95,201 90,197 85,201 87,194 81,189 88,189"
             fill="url(#nsc-star)" opacity="0.88"/>
    <!-- 0° (left) -->
    <polygon points="67,143 69,150 76,150 70,155 72,162 67,158 62,162 64,155 58,150 65,150"
             fill="url(#nsc-star)" opacity="0.90"/>
    <!-- 30° -->
    <polygon points="87,115 89,122 96,122 90,127 92,134 87,130 82,134 84,127 78,122 85,122"
             fill="url(#nsc-star)" opacity="0.92"/>
    <!-- 60° -->
    <polygon points="133,74 135,81 142,81 136,86 138,93 133,89 128,93 130,86 124,81 131,81"
             fill="url(#nsc-star)" opacity="0.92"/>
  </g>

  <!-- ── HALO RINGS ── -->
  <circle cx="200" cy="138" r="56" fill="none" stroke="url(#nsc-gold)" stroke-width="2.8" opacity="0.90" filter="url(#nsc-gf)"/>
  <circle cx="200" cy="138" r="52" fill="none" stroke="#f8e040" stroke-width="0.9" opacity="0.48"/>
  <circle cx="200" cy="138" r="60" fill="none" stroke="#a08020" stroke-width="0.7" opacity="0.28"/>

  <!-- ── CROWN (gold, three-pointed) ── -->
  <!-- Crown band -->
  <path d="M 170,108 L 170,116 Q 200,112 230,116 L 230,108 Z"
        fill="url(#nsc-crown)" opacity="0.90"/>
  <!-- Three crown points -->
  <polygon points="172,108 175,92 182,108" fill="url(#nsc-crown)" opacity="0.88"/>
  <polygon points="196,108 200,86 204,108" fill="url(#nsc-crown)" opacity="0.92"/>
  <polygon points="218,108 225,92 228,108" fill="url(#nsc-crown)" opacity="0.88"/>
  <!-- Crown gemstones -->
  <circle cx="200" cy="92" r="4" fill="#e8f8ff" opacity="0.80"/>
  <circle cx="177" cy="97" r="3" fill="#ffe8a0" opacity="0.75"/>
  <circle cx="223" cy="97" r="3" fill="#ffe8a0" opacity="0.75"/>
  <!-- Crown outline highlight -->
  <path d="M 170,116 Q 200,112 230,116" fill="none" stroke="#fff0a0" stroke-width="0.8" opacity="0.40"/>

  <!-- ── MANTLE (deep blue, from head over shoulders, wide) ── -->
  <!-- Left mantle sweep -->
  <path d="M 158,140 C 138,165 115,205 105,280 C 98,340 100,400 105,460
           L 145,460 C 138,400 136,340 142,280 C 148,220 162,182 175,158 Z"
        fill="#0c1e70" opacity="0.95"/>
  <!-- Right mantle sweep -->
  <path d="M 242,140 C 262,165 285,205 295,280 C 302,340 300,400 295,460
           L 255,460 C 262,400 264,340 258,280 C 252,220 238,182 225,158 Z"
        fill="#0c1e70" opacity="0.88"/>
  <!-- Mantle over head (veil) -->
  <path d="M 158,140 C 168,128 184,120 200,118 C 216,120 232,128 242,140
           C 232,135 218,132 200,132 C 182,132 168,135 158,140 Z"
        fill="#0e2278" opacity="0.92"/>
  <!-- Mantle fold highlights (subtle blue-lighter) -->
  <path d="M 118,240 C 122,280 124,330 128,380" stroke="#1a3898" stroke-width="2" fill="none" opacity="0.40"/>
  <path d="M 282,240 C 278,280 276,330 272,380" stroke="#1a3898" stroke-width="2" fill="none" opacity="0.35"/>
  <!-- Gold edge trim on mantle hem -->
  <path d="M 105,460 C 118,455 132,452 145,460" fill="none" stroke="#d4a020" stroke-width="1.5" opacity="0.55"/>
  <path d="M 255,460 C 268,452 282,455 295,460" fill="none" stroke="#d4a020" stroke-width="1.5" opacity="0.55"/>
  <!-- Gold star on mantle (Stella Maris) -->
  <polygon points="128,200 130,208 138,208 132,213 134,221 128,217 122,221 124,213 118,208 126,208"
           fill="#e8c030" opacity="0.60"/>
  <polygon points="272,200 274,208 282,208 276,213 278,221 272,217 266,221 268,213 262,208 270,208"
           fill="#e8c030" opacity="0.55"/>

  <!-- ── WHITE TUNIC (visible at center front) ── -->
  <path d="M 168,165 C 162,188 158,220 156,280 L 156,460 L 244,460 L 244,280
           C 242,220 238,188 232,165 Q 216,158 200,156 Q 184,158 168,165 Z"
        fill="url(#nsc-tunic)" opacity="0.92"/>
  <!-- Tunic vertical fold -->
  <line x1="200" y1="168" x2="200" y2="458" stroke="#d8d4c8" stroke-width="1.2" opacity="0.25"/>

  <!-- ── BROWN SCAPULAR (front panel over tunic) ── -->
  <!-- Front scapular panel hanging from neck -->
  <rect x="182" y="170" width="36" height="110" rx="4" fill="url(#nsc-scap)" opacity="0.90"/>
  <!-- Scapular texture lines -->
  <line x1="187" y1="185" x2="213" y2="185" stroke="#8a5020" stroke-width="0.8" opacity="0.35"/>
  <line x1="187" y1="200" x2="213" y2="200" stroke="#8a5020" stroke-width="0.8" opacity="0.35"/>
  <line x1="187" y1="215" x2="213" y2="215" stroke="#8a5020" stroke-width="0.8" opacity="0.35"/>
  <line x1="187" y1="230" x2="213" y2="230" stroke="#8a5020" stroke-width="0.8" opacity="0.35"/>
  <!-- Small cross on scapular -->
  <line x1="200" y1="245" x2="200" y2="268" stroke="#e8c030" stroke-width="2" opacity="0.65"/>
  <line x1="190" y1="254" x2="210" y2="254" stroke="#e8c030" stroke-width="2" opacity="0.65"/>
  <!-- Scapular cord at shoulders -->
  <path d="M 182,175 C 174,172 168,168 168,165" fill="none" stroke="#5a3008" stroke-width="2.5" opacity="0.70"/>
  <path d="M 218,175 C 226,172 232,168 232,165" fill="none" stroke="#5a3008" stroke-width="2.5" opacity="0.70"/>

  <!-- ── NECK ── -->
  <rect x="185" y="148" width="30" height="22" rx="8" fill="url(#nsc-skin)" opacity="0.97"/>

  <!-- ── HEAD (gentle, serene, young woman) ── -->
  <ellipse cx="200" cy="155" rx="48" ry="54" fill="url(#nsc-skin)"/>

  <!-- ── HAIR (dark, under veil, barely visible) ── -->
  <path d="M 154,152 C 156,108 172,84 200,80 C 228,84 244,108 246,152
           C 244,136 238,118 230,118 C 222,98 212,86 200,84
           C 188,86 178,98 170,118 C 162,118 156,136 154,152 Z"
        fill="#1a0e06"/>
  <path d="M 154,152 C 150,163 148,178 149,195" stroke="#1a0e06" stroke-width="8" fill="none" stroke-linecap="round"/>
  <path d="M 246,152 C 250,163 252,178 251,195" stroke="#1a0e06" stroke-width="8" fill="none" stroke-linecap="round"/>

  <!-- ── VEIL EDGE OVER HAIR ── -->
  <path d="M 155,150 C 158,140 170,132 200,130 C 230,132 242,140 245,150"
        fill="none" stroke="#0e2278" stroke-width="4" opacity="0.60"/>

  <!-- ── EARS ── -->
  <ellipse cx="153" cy="160" rx="9" ry="12" fill="url(#nsc-skin)" opacity="0.85"/>
  <ellipse cx="247" cy="160" rx="9" ry="12" fill="url(#nsc-skin)" opacity="0.85"/>

  <!-- ── EYES (serene, dark, merciful) ── -->
  <!-- Left eye -->
  <ellipse cx="183" cy="153" rx="9.5" ry="6.5" fill="#f0e0c0"/>
  <ellipse cx="183" cy="153" rx="6.5" ry="5.5" fill="#2c1c08"/>
  <ellipse cx="183" cy="153" rx="3.8" ry="3.8" fill="#0e0806"/>
  <circle  cx="185" cy="151" r="1.3" fill="white" opacity="0.72"/>
  <!-- Right eye -->
  <ellipse cx="217" cy="153" rx="9.5" ry="6.5" fill="#f0e0c0"/>
  <ellipse cx="217" cy="153" rx="6.5" ry="5.5" fill="#2c1c08"/>
  <ellipse cx="217" cy="153" rx="3.8" ry="3.8" fill="#0e0806"/>
  <circle  cx="219" cy="151" r="1.3" fill="white" opacity="0.72"/>
  <!-- Eyebrows: dark, gentle arch -->
  <path d="M 174,144 Q 183,140 193,143" stroke="#1a0e06" stroke-width="2.0" fill="none" stroke-linecap="round"/>
  <path d="M 207,143 Q 217,140 226,144" stroke="#1a0e06" stroke-width="2.0" fill="none" stroke-linecap="round"/>

  <!-- ── NOSE (delicate) ── -->
  <path d="M 200,158 L 196,170 Q 200,173 204,170 Z" fill="#b88060" opacity="0.35"/>
  <circle cx="196" cy="171" r="3.0" fill="#9a7050" opacity="0.25"/>
  <circle cx="204" cy="171" r="3.0" fill="#9a7050" opacity="0.25"/>

  <!-- ── MOUTH (gentle, slight smile) ── -->
  <path d="M 189,180 Q 200,188 211,180" fill="none" stroke="#8a5038" stroke-width="1.7" stroke-linecap="round"/>
  <path d="M 192,179 Q 200,183 208,179" fill="#c89080" opacity="0.28"/>

  <!-- ── LEFT ARM (carrying Child Jesus) ── -->
  <path d="M 155,220 C 145,248 138,275 134,310" stroke="#0c1e70" stroke-width="28" fill="none" stroke-linecap="round"/>
  <path d="M 134,310 C 130,328 128,345 126,362" stroke="#0c1e70" stroke-width="24" fill="none" stroke-linecap="round"/>
  <!-- Forearm cradle position -->
  <path d="M 126,362 C 122,374 118,384 115,395" stroke="url(#nsc-tunic)" stroke-width="20" fill="none" stroke-linecap="round"/>
  <!-- Left hand -->
  <ellipse cx="112" cy="400" rx="14" ry="10" fill="url(#nsc-skin)" transform="rotate(-15, 112, 400)"/>

  <!-- ── CHILD JESUS (held in left arm) ── -->
  <!-- Child body/swaddling white cloth -->
  <ellipse cx="118" cy="345" rx="30" ry="38" fill="#f0ece4" opacity="0.92"/>
  <!-- Child head -->
  <circle cx="118" cy="304" r="24" fill="url(#nsc-childskin)"/>
  <!-- Child halo -->
  <circle cx="118" cy="304" r="28" fill="none" stroke="#f0c820" stroke-width="1.5" opacity="0.65"/>
  <!-- Child hair -->
  <path d="M 96,298 C 97,278 106,268 118,266 C 130,268 139,278 140,298
           C 138,288 134,278 126,276 C 120,268 116,268 110,276 C 102,278 98,288 96,298 Z"
        fill="#2a1408"/>
  <!-- Child eyes (closed/downward, peaceful) -->
  <path d="M 108,302 Q 113,304 118,302" fill="none" stroke="#2a1408" stroke-width="1.5" stroke-linecap="round"/>
  <path d="M 118,302 Q 123,304 128,302" fill="none" stroke="#2a1408" stroke-width="1.5" stroke-linecap="round"/>
  <!-- Child nose -->
  <circle cx="118" cy="310" r="2" fill="#b88060" opacity="0.30"/>
  <!-- Child mouth (tiny smile) -->
  <path d="M 113,316 Q 118,320 123,316" fill="none" stroke="#9a6048" stroke-width="1.2" stroke-linecap="round"/>
  <!-- Child hand (right, raised in blessing) -->
  <ellipse cx="142" cy="325" rx="10" ry="7" fill="url(#nsc-childskin)"/>
  <!-- Three tiny blessing fingers -->
  <line x1="138" y1="320" x2="137" y2="313" stroke="url(#nsc-childskin)" stroke-width="4" stroke-linecap="round"/>
  <line x1="142" y1="319" x2="142" y2="311" stroke="url(#nsc-childskin)" stroke-width="4" stroke-linecap="round"/>
  <line x1="146" y1="320" x2="147" y2="313" stroke="url(#nsc-childskin)" stroke-width="4" stroke-linecap="round"/>

  <!-- ── RIGHT ARM (offering the brown scapular) ── -->
  <path d="M 245,220 C 255,248 262,278 268,312" stroke="#0c1e70" stroke-width="26" fill="none" stroke-linecap="round"/>
  <path d="M 268,312 C 272,330 275,348 275,366" stroke="#0c1e70" stroke-width="22" fill="none" stroke-linecap="round"/>
  <path d="M 275,366 C 276,378 275,388 272,398" stroke="url(#nsc-tunic)" stroke-width="18" fill="none" stroke-linecap="round"/>
  <!-- Right hand extended, palm up, holding scapular -->
  <ellipse cx="270" cy="403" rx="15" ry="11" fill="url(#nsc-skin)" transform="rotate(8, 270, 403)"/>
  <!-- Fingers open/palm up -->
  <ellipse cx="278" cy="406" rx="8" ry="5.5" fill="url(#nsc-skin)" transform="rotate(12, 278, 406)"/>
  <ellipse cx="270" cy="410" rx="8" ry="5.5" fill="url(#nsc-skin)" transform="rotate(4,  270, 410)"/>
  <ellipse cx="262" cy="408" rx="8" ry="5.5" fill="url(#nsc-skin)" transform="rotate(-2, 262, 408)"/>

  <!-- Brown scapular offered in right hand (small rectangular cloth panel) -->
  <rect x="255" y="380" width="32" height="42" rx="3" fill="url(#nsc-scap)"
        transform="rotate(5, 271, 401)" opacity="0.92"/>
  <!-- Cross on offered scapular -->
  <line x1="271" y1="388" x2="271" y2="410" stroke="#e8c030" stroke-width="1.8"
        transform="rotate(5, 271, 401)" opacity="0.75"/>
  <line x1="262" y1="397" x2="280" y2="397" stroke="#e8c030" stroke-width="1.8"
        transform="rotate(5, 271, 401)" opacity="0.75"/>
  <!-- Scapular cord dangling from scapular -->
  <path d="M 256,382 C 252,376 250,372 252,368" fill="none" stroke="#5a3008" stroke-width="2" opacity="0.60"
        transform="rotate(5, 271, 401)"/>
  <path d="M 287,382 C 291,376 292,372 290,368" fill="none" stroke="#5a3008" stroke-width="2" opacity="0.60"
        transform="rotate(5, 271, 401)"/>

  <!-- ── FEET / SANDALS on rocky ground ── -->
  <ellipse cx="175" cy="460" rx="20" ry="7" fill="#3a2808" opacity="0.65"/>
  <ellipse cx="225" cy="460" rx="20" ry="7" fill="#3a2808" opacity="0.65"/>
  <!-- Rocky ground beneath feet -->
  <path d="M 148,465 C 162,460 178,462 192,465 C 198,467 202,467 208,465 C 222,462 238,460 252,465"
        fill="#0c1420" opacity="0.50"/>

  <!-- ── FRAME ── -->
  <rect x="10" y="10" width="380" height="540" rx="6"
        fill="none" stroke="url(#nsc-frame)" stroke-width="2.2" opacity="0.80"/>
  <rect x="14" y="14" width="372" height="532" rx="4"
        fill="none" stroke="#4060c0" stroke-width="0.8" opacity="0.38"/>
  <!-- Corner ornaments -->
  <path d="M 10,35 L 10,10 L 35,10"    fill="none" stroke="url(#nsc-frame)" stroke-width="3" stroke-linecap="round"/>
  <path d="M 365,10 L 390,10 L 390,35"   fill="none" stroke="url(#nsc-frame)" stroke-width="3" stroke-linecap="round"/>
  <path d="M 10,515 L 10,540 L 35,540"   fill="none" stroke="url(#nsc-frame)" stroke-width="3" stroke-linecap="round"/>
  <path d="M 365,540 L 390,540 L 390,515" fill="none" stroke="url(#nsc-frame)" stroke-width="3" stroke-linecap="round"/>

  <!-- ── NAME PANEL ── -->
  <rect x="10" y="490" width="380" height="60" fill="url(#nsc-panel)" opacity="0.97"/>
  <line x1="10" y1="490" x2="390" y2="490" stroke="url(#nsc-frame)" stroke-width="1.5" opacity="0.70"/>

  <text x="200" y="510" text-anchor="middle" font-family="Georgia, 'Times New Roman', serif"
        font-size="14.5" font-weight="bold" letter-spacing="2"
        fill="#f5d060" opacity="0.97">NUESTRA SEÑORA DEL CARMEN</text>
  <text x="200" y="527" text-anchor="middle" font-family="Georgia, 'Times New Roman', serif"
        font-size="8.5" letter-spacing="2" fill="#80a0ff" opacity="0.82">
        REINA DEL CARMELO · STELLA MARIS · ESCAPULARIO</text>
  <text x="200" y="543" text-anchor="middle" font-family="Georgia, 'Times New Roman', serif"
        font-size="8" letter-spacing="1.5" fill="#b07820" opacity="0.68">
        16 DE JULIO · JULY 16</text>
  <!-- Minimal facial features for visual consistency across intercessors -->
  <g id="tup-face-features" opacity="0.9">
    <ellipse id="tup-eye-left" cx="186" cy="138" rx="3.1" ry="2.2" fill="#2a1a12"/>
    <ellipse id="tup-eye-right" cx="214" cy="138" rx="3.1" ry="2.2" fill="#2a1a12"/>
    <path id="tup-nose" d="M200 142 C198 148, 198 150, 200 153" stroke="#7b4a35" stroke-width="1.6" fill="none" stroke-linecap="round"/>
    <path id="tup-mouth" d="M192 162 Q200 167 208 162" stroke="#8f3a3a" stroke-width="1.8" fill="none" stroke-linecap="round"/>
  </g></svg>
