<svg xmlns="http://www.w3.org/2000/svg" viewBox="0 0 400 600">
  <defs>
    <radialGradient id="sax-bg" cx="50%" cy="35%" r="65%">
      <stop offset="0%" stop-color="#08140e"/><stop offset="100%" stop-color="#020604"/>
    </radialGradient>
    <radialGradient id="sax-atm" cx="50%" cy="38%" r="46%">
      <stop offset="0%" stop-color="#1a5a4a" stop-opacity="0.26"/><stop offset="100%" stop-color="#1a5a4a" stop-opacity="0"/>
    </radialGradient>
    <linearGradient id="sax-r1" x1="50%" y1="0%" x2="10%" y2="100%">
      <stop offset="0%" stop-color="#2a8060" stop-opacity="1"/><stop offset="100%" stop-color="#0a3020" stop-opacity="0.4"/>
    </linearGradient>
    <linearGradient id="sax-r2" x1="50%" y1="0%" x2="90%" y2="100%">
      <stop offset="0%" stop-color="#f5e060" stop-opacity="1"/><stop offset="100%" stop-color="#c9a84c" stop-opacity="0.4"/>
    </linearGradient>
    <filter id="sax-gl"><feGaussianBlur stdDeviation="9" result="b"/><feMerge><feMergeNode in="b"/><feMergeNode in="b"/><feMergeNode in="SourceGraphic"/></feMerge></filter>
    <filter id="sax-g2"><feGaussianBlur stdDeviation="5" result="b"/><feMerge><feMergeNode in="b"/><feMergeNode in="SourceGraphic"/></feMerge></filter>
    <filter id="sax-wg"><feGaussianBlur stdDeviation="12" result="b"/><feMerge><feMergeNode in="b"/><feMergeNode in="SourceGraphic"/></feMerge></filter>
  </defs>
  <rect width="400" height="600" fill="url(#sax-bg)"/>
  <rect width="400" height="600" fill="url(#sax-atm)"/>
  <!-- Water reflection glow at bottom -->
  <ellipse cx="200" cy="540" rx="170" ry="55" fill="#1a5a4a" opacity="0.22" filter="url(#sax-wg)"/>
  <!-- Rays: teal left, gold right -->
  <polygon points="198,262 -25,610 115,610" fill="url(#sax-r1)" filter="url(#sax-gl)" opacity="0.72"/>
  <polygon points="198,262 20,600  85,600"  fill="#2a8060" opacity="0.38"/>
  <polygon points="202,262 425,610 285,610" fill="url(#sax-r2)" filter="url(#sax-gl)" opacity="0.70"/>
  <polygon points="202,262 375,600 315,600" fill="#f5e060" opacity="0.34"/>
  <!-- White robe (catechumen / baptismal) -->
  <path d="M164,158 Q140,208 128,458 Q162,475 200,477 Q238,475 272,458 Q260,208 236,158 Q218,172 200,174 Q182,172 164,158 Z" fill="#eaece8" opacity="0.90"/>
  <!-- Robe fold -->
  <path d="M176,162 Q156,218 148,440 Q172,458 200,460 Q186,224 180,165 Z" fill="#c8cec0" opacity="0.38"/>
  <!-- Teal sash / belt -->
  <rect x="158" y="278" width="84" height="10" rx="4" fill="#2a8060" opacity="0.75"/>
  <!-- Outer mantle (jade/teal, draped) -->
  <path d="M165,160 Q118,200 108,338 Q124,350 144,342 Q150,286 166,228 Z" fill="#1a6050" opacity="0.55"/>
  <!-- Cross (right hand, raised) -->
  <path d="M236,195 Q268,228 278,272 Q268,282 256,276 Q250,252 238,218 Z" fill="#eaece8" opacity="0.90"/>
  <line x1="275" y1="260" x2="275" y2="215" stroke="#c9a84c" stroke-width="6" stroke-linecap="round"/>
  <line x1="258" y1="238" x2="292" y2="238" stroke="#c9a84c" stroke-width="5" stroke-linecap="round"/>
  <!-- Left arm (holds jade vessel / water jar) -->
  <path d="M164,195 Q126,232 115,295 Q128,306 142,299 Q150,262 166,215 Z" fill="#eaece8" opacity="0.90"/>
  <!-- Water jar (jade vessel) -->
  <ellipse cx="108" cy="308" rx="18" ry="22" fill="#3a8068" opacity="0.82"/>
  <ellipse cx="108" cy="296" rx="12" ry="8" fill="#4a9078" opacity="0.78"/>
  <ellipse cx="108" cy="330" rx="14" ry="6" fill="#2a6050" opacity="0.72"/>
  <!-- Water flow from jar -->
  <path d="M104,322 Q96,335 98,350" stroke="#80d0c0" stroke-width="2" fill="none" opacity="0.62" stroke-linecap="round"/>
  <path d="M112,326 Q106,340 108,355" stroke="#80d0c0" stroke-width="1.5" fill="none" opacity="0.50" stroke-linecap="round"/>
  <!-- Hands -->
  <ellipse cx="118" cy="299" rx="12" ry="8" fill="#b8906a" opacity="0.88"/>
  <ellipse cx="278" cy="274" rx="12" ry="8" fill="#b8906a" opacity="0.88"/>
  <!-- Neck -->
  <rect x="193" y="142" width="14" height="18" rx="4" fill="#c09870" opacity="0.88"/>
  <!-- Head (indigenous features) -->
  <ellipse cx="200" cy="108" rx="27" ry="31" fill="#b8906a" opacity="0.92"/>
  <!-- Dark hair -->
  <path d="M173,102 Q175,64 200,58 Q225,64 227,102 Q220,78 200,76 Q180,78 173,102 Z" fill="#1a1008" opacity="0.90"/>
  <ellipse cx="172" cy="115" rx="7" ry="18" fill="#1a1008" opacity="0.75"/>
  <ellipse cx="228" cy="115" rx="7" ry="18" fill="#1a1008" opacity="0.75"/>
  <!-- Eyes (dark, expressive) -->
  <ellipse cx="189" cy="106" rx="5" ry="4" fill="#0a0808"/>
  <ellipse cx="211" cy="106" rx="5" ry="4" fill="#0a0808"/>
  <circle cx="190" cy="105" r="1.5" fill="#ffffff" opacity="0.45"/>
  <circle cx="212" cy="105" r="1.5" fill="#ffffff" opacity="0.45"/>
  <!-- Halo: two thin gold rings -->
  <circle cx="200" cy="108" r="53" fill="none" stroke="#e8c97a" stroke-width="1.8" stroke-opacity="0.65" filter="url(#sax-g2)"/>
  <circle cx="200" cy="108" r="47" fill="none" stroke="#e8c97a" stroke-width="0.5" stroke-opacity="0.22"/>
  <!-- Frame -->
  <rect x="6" y="6" width="388" height="588" rx="8" fill="none" stroke="#c9a84c" stroke-width="1.2" stroke-opacity="0.5"/>
  <rect x="12" y="12" width="376" height="576" rx="5" fill="none" stroke="#c9a84c" stroke-width="0.5" stroke-opacity="0.18"/>
  <!-- Panel -->
  <rect x="18" y="528" width="364" height="66" rx="6" fill="#020604" opacity="0.88"/>
  <line x1="46" y1="535" x2="354" y2="535" stroke="#c9a84c" stroke-width="0.5" stroke-opacity="0.28"/>
  <text x="200" y="548" text-anchor="middle" font-family="Arial,sans-serif" font-size="8" fill="#c9a84c" letter-spacing="3" opacity="0.9">SAN AXAYACATL · SAINT AXAYACATL</text>
  <text x="200" y="567" text-anchor="middle" font-family="Georgia,serif" font-size="14" fill="#80d8b8" font-style="italic">«Cara de agua, imagen del cielo»</text>
  <text x="200" y="585" text-anchor="middle" font-family="Georgia,serif" font-size="11" fill="#f5e060" font-style="italic" opacity="0.8">«Face of water, image of heaven»</text>
</svg>
