<svg xmlns="http://www.w3.org/2000/svg" viewBox="0 0 400 600">
  <defs>
    <radialGradient id="sg-bg" cx="50%" cy="35%" r="65%">
      <stop offset="0%" stop-color="#080c18"/><stop offset="100%" stop-color="#040608"/>
    </radialGradient>
    <linearGradient id="sg-r1" x1="50%" y1="0%" x2="10%" y2="100%">
      <stop offset="0%" stop-color="#6090f0" stop-opacity="1"/><stop offset="100%" stop-color="#1030a0" stop-opacity="0.4"/>
    </linearGradient>
    <linearGradient id="sg-r2" x1="50%" y1="0%" x2="90%" y2="100%">
      <stop offset="0%" stop-color="#f8f0e0" stop-opacity="1"/><stop offset="100%" stop-color="#c8b878" stop-opacity="0.4"/>
    </linearGradient>
    <filter id="sg-gl"><feGaussianBlur stdDeviation="9" result="b"/><feMerge><feMergeNode in="b"/><feMergeNode in="b"/><feMergeNode in="SourceGraphic"/></feMerge></filter>
    <filter id="sg-g2"><feGaussianBlur stdDeviation="5" result="b"/><feMerge><feMergeNode in="b"/><feMergeNode in="SourceGraphic"/></feMerge></filter>
  </defs>
  <rect width="400" height="600" fill="url(#sg-bg)"/>
  <rect width="400" height="600" fill="#3050a0" opacity="0.12"/>
  <polygon points="198,265 -25,610 115,610" fill="url(#sg-r1)" filter="url(#sg-gl)" opacity="0.72"/>
  <polygon points="198,265 20,600  85,600"  fill="#6090f0" opacity="0.38"/>
  <polygon points="202,265 425,610 285,610" fill="url(#sg-r2)" filter="url(#sg-gl)" opacity="0.68"/>
  <polygon points="202,265 375,600 315,600" fill="#f8f0e0" opacity="0.34"/>
  <!-- Wings -->
  <path d="M168,173 Q118,140 48,62 Q22,44 14,70 Q58,94 112,138 Q144,162 168,182 Z" fill="#a8c4f8" opacity="0.72"/>
  <path d="M168,178 Q128,158 72,108 Q52,94 52,116 Q92,138 132,168 Q152,180 168,188 Z" fill="#ccd8ff" opacity="0.62"/>
  <path d="M168,184 Q138,176 104,160 Q88,152 92,168 Q120,172 150,185 Q162,189 168,194 Z" fill="#88a8e8" opacity="0.55"/>
  <path d="M168,179 Q122,152 65,98" stroke="#6090f0" stroke-width="0.9" fill="none" opacity="0.40"/>
  <path d="M168,181 Q118,158 68,112" stroke="#6090f0" stroke-width="0.9" fill="none" opacity="0.35"/>
  <path d="M168,183 Q124,164 82,132" stroke="#6090f0" stroke-width="0.9" fill="none" opacity="0.28"/>
  <path d="M232,173 Q282,140 352,62 Q378,44 386,70 Q342,94 288,138 Q256,162 232,182 Z" fill="#a8c4f8" opacity="0.72"/>
  <path d="M232,178 Q272,158 328,108 Q348,94 348,116 Q308,138 268,168 Q248,180 232,188 Z" fill="#ccd8ff" opacity="0.62"/>
  <path d="M232,184 Q262,176 296,160 Q312,152 308,168 Q280,172 250,185 Q238,189 232,194 Z" fill="#88a8e8" opacity="0.55"/>
  <path d="M232,179 Q278,152 335,98" stroke="#6090f0" stroke-width="0.9" fill="none" opacity="0.40"/>
  <path d="M232,181 Q282,158 332,112" stroke="#6090f0" stroke-width="0.9" fill="none" opacity="0.35"/>
  <path d="M232,183 Q276,164 318,132" stroke="#6090f0" stroke-width="0.9" fill="none" opacity="0.28"/>
  <!-- White robe -->
  <path d="M168,155 Q140,205 126,390 Q200,415 274,390 Q260,205 232,155 Z" fill="#e8f0ff" opacity="0.88"/>
  <!-- Blue mantle -->
  <path d="M168,155 Q124,192 108,318 Q122,330 148,312 Q150,228 178,168 Z" fill="#2848b0" opacity="0.82"/>
  <path d="M232,155 Q260,198 270,318 Q290,322 296,300 Q286,198 248,158 Z" fill="#2848b0" opacity="0.76"/>
  <!-- Left arm holding scroll -->
  <path d="M140,215 Q112,255 104,294" stroke="#e8f0ff" stroke-width="17" fill="none" stroke-linecap="round" opacity="0.85"/>
  <!-- Right arm open -->
  <path d="M260,215 Q288,255 296,294" stroke="#2848b0" stroke-width="16" fill="none" stroke-linecap="round" opacity="0.8"/>
  <!-- Scroll (Annunciation) -->
  <rect x="90" y="293" width="28" height="20" rx="3" fill="#f8f0e0" opacity="0.88"/>
  <path d="M90,295 Q104,293 118,295" stroke="#c8a870" stroke-width="1.5" opacity="0.6"/>
  <path d="M90,300 Q104,298 118,300" stroke="#c8a870" stroke-width="1" opacity="0.5"/>
  <!-- Hands -->
  <ellipse cx="104" cy="296" rx="12" ry="15" fill="#d4a06a" opacity="0.9"/>
  <ellipse cx="296" cy="296" rx="12" ry="15" fill="#d4a06a" opacity="0.9"/>
  <!-- Lily stem -->
  <line x1="296" y1="296" x2="296" y2="240" stroke="#7aaa40" stroke-width="2.5" opacity="0.8"/>
  <ellipse cx="296" cy="236" rx="6" ry="10" fill="#f8f4e8" opacity="0.88"/>
  <!-- Neck + head -->
  <rect x="193" y="142" width="14" height="18" rx="4" fill="#d4a06a" opacity="0.9"/>
  <ellipse cx="200" cy="108" rx="26" ry="30" fill="#d4c0a0" opacity="0.92"/>
  <path d="M174,106 Q176,72 200,68 Q224,72 226,106 Q218,86 200,84 Q182,86 174,106 Z" fill="#c8b060" opacity="0.6"/>
  <!-- Halo -->
  <circle cx="200" cy="108" r="53" fill="none" stroke="#e8c97a" stroke-width="1.8" stroke-opacity="0.65" filter="url(#sg-g2)"/>
  <circle cx="200" cy="108" r="47" fill="none" stroke="#e8c97a" stroke-width="0.5" stroke-opacity="0.22"/>
  <!-- Frame -->
  <rect x="6" y="6" width="388" height="588" rx="8" fill="none" stroke="#c9a84c" stroke-width="1.2" stroke-opacity="0.5"/>
  <rect x="12" y="12" width="376" height="576" rx="5" fill="none" stroke="#c9a84c" stroke-width="0.5" stroke-opacity="0.18"/>
  <!-- Panel -->
  <rect x="18" y="528" width="364" height="66" rx="6" fill="#040608" opacity="0.86"/>
  <line x1="46" y1="535" x2="354" y2="535" stroke="#c9a84c" stroke-width="0.5" stroke-opacity="0.28"/>
  <text x="200" y="548" text-anchor="middle" font-family="Arial,sans-serif" font-size="8" fill="#c9a84c" letter-spacing="3" opacity="0.9">SAN GABRIEL ARCANGEL  ·  SAINT GABRIEL</text>
  <text x="200" y="567" text-anchor="middle" font-family="Georgia,serif" font-size="14" fill="#c0d8ff" font-style="italic">«San Gabriel Arcángel»</text>
  <text x="200" y="585" text-anchor="middle" font-family="Georgia,serif" font-size="11" fill="#f0e8c8" font-style="italic" opacity="0.8">«Saint Gabriel the Archangel»</text>
</svg>
