<svg xmlns="http://www.w3.org/2000/svg" viewBox="0 0 400 600">
  <defs>
    <radialGradient id="sgb-bg" cx="50%" cy="35%" r="65%">
      <stop offset="0%" stop-color="#080e1a"/><stop offset="100%" stop-color="#020408"/>
    </radialGradient>
    <radialGradient id="sgb-atm" cx="50%" cy="38%" r="46%">
      <stop offset="0%" stop-color="#1a3a8a" stop-opacity="0.28"/><stop offset="100%" stop-color="#1a3a8a" stop-opacity="0"/>
    </radialGradient>
    <linearGradient id="sgb-r1" x1="50%" y1="0%" x2="10%" y2="100%">
      <stop offset="0%" stop-color="#4060d0" stop-opacity="1"/><stop offset="100%" stop-color="#1a2860" stop-opacity="0.4"/>
    </linearGradient>
    <linearGradient id="sgb-r2" x1="50%" y1="0%" x2="90%" y2="100%">
      <stop offset="0%" stop-color="#f5e060" stop-opacity="1"/><stop offset="100%" stop-color="#c9a84c" stop-opacity="0.4"/>
    </linearGradient>
    <filter id="sgb-gl"><feGaussianBlur stdDeviation="9" result="b"/><feMerge><feMergeNode in="b"/><feMergeNode in="b"/><feMergeNode in="SourceGraphic"/></feMerge></filter>
    <filter id="sgb-g2"><feGaussianBlur stdDeviation="5" result="b"/><feMerge><feMergeNode in="b"/><feMergeNode in="SourceGraphic"/></feMerge></filter>
  </defs>
  <rect width="400" height="600" fill="url(#sgb-bg)"/>
  <rect width="400" height="600" fill="url(#sgb-atm)"/>
  <!-- Rays: blue left, gold right -->
  <polygon points="198,262 -25,610 115,610" fill="url(#sgb-r1)" filter="url(#sgb-gl)" opacity="0.75"/>
  <polygon points="198,262 20,600  85,600"  fill="#4060d0" opacity="0.38"/>
  <polygon points="202,262 425,610 285,610" fill="url(#sgb-r2)" filter="url(#sgb-gl)" opacity="0.72"/>
  <polygon points="202,262 375,600 315,600" fill="#f5e060" opacity="0.34"/>
  <!-- Wings (large, white-blue feathers, behind figure) -->
  <!-- Left wing -->
  <path d="M178,145 Q90,120 42,200 Q55,280 88,320 Q120,280 145,220 Q158,185 172,162 Z" fill="#d8e4f8" opacity="0.70"/>
  <path d="M178,145 Q100,148 68,225 Q90,248 115,238 Q140,210 162,172 Z" fill="#b8ccf0" opacity="0.45"/>
  <!-- Right wing -->
  <path d="M222,145 Q310,120 358,200 Q345,280 312,320 Q280,280 255,220 Q242,185 228,162 Z" fill="#d8e4f8" opacity="0.70"/>
  <path d="M222,145 Q300,148 332,225 Q310,248 285,238 Q260,210 238,172 Z" fill="#b8ccf0" opacity="0.45"/>
  <!-- Angel robe (white/light blue) -->
  <path d="M165,158 Q142,208 132,458 Q164,475 200,477 Q236,475 268,458 Q258,208 235,158 Q218,172 200,174 Q182,172 165,158 Z" fill="#e8f0fc" opacity="0.92"/>
  <!-- Robe fold -->
  <path d="M178,162 Q158,218 150,440 Q174,460 200,462 Q186,225 182,165 Z" fill="#c8d8f0" opacity="0.38"/>
  <!-- Gold belt -->
  <rect x="155" y="280" width="90" height="9" rx="4" fill="#c9a84c" opacity="0.78"/>
  <!-- Left arm (holds lily) -->
  <path d="M165,195 Q128,235 118,298 Q130,308 144,302 Q150,265 166,215 Z" fill="#e8f0fc" opacity="0.92"/>
  <!-- Lily (left hand) -->
  <line x1="118" y1="302" x2="105" y2="248" stroke="#3a6820" stroke-width="2.5"/>
  <ellipse cx="104" cy="244" rx="6" ry="10" fill="#f0f8e8" opacity="0.90" transform="rotate(-15,104,244)"/>
  <ellipse cx="96" cy="238" rx="5" ry="8" fill="#f0f8e8" opacity="0.75" transform="rotate(20,96,238)"/>
  <ellipse cx="112" cy="235" rx="5" ry="8" fill="#f0f8e8" opacity="0.75" transform="rotate(-30,112,235)"/>
  <!-- Right arm (raised, pointing up — annunciation gesture) -->
  <path d="M235,195 Q272,228 285,275 Q274,285 260,279 Q254,248 238,215 Z" fill="#e8f0fc" opacity="0.92"/>
  <!-- Right hand open upward -->
  <ellipse cx="284" cy="278" rx="13" ry="9" fill="#d4c8b8" opacity="0.88"/>
  <!-- Left hand -->
  <ellipse cx="122" cy="302" rx="13" ry="9" fill="#d4c8b8" opacity="0.88"/>
  <!-- Neck -->
  <rect x="193" y="142" width="14" height="18" rx="4" fill="#d4c8b8" opacity="0.88"/>
  <!-- Head -->
  <ellipse cx="200" cy="108" rx="26" ry="30" fill="#d8c8b0" opacity="0.92"/>
  <!-- Hair (light, angelic) -->
  <path d="M174,104 Q176,68 200,62 Q224,68 226,104 Q220,82 200,80 Q180,82 174,104 Z" fill="#c8a858" opacity="0.75"/>
  <ellipse cx="172" cy="112" rx="7" ry="16" fill="#c8a858" opacity="0.58"/>
  <ellipse cx="228" cy="112" rx="7" ry="16" fill="#c8a858" opacity="0.58"/>
  <!-- Halo: two thin gold rings -->
  <circle cx="200" cy="108" r="53" fill="none" stroke="#e8c97a" stroke-width="1.8" stroke-opacity="0.65" filter="url(#sgb-g2)"/>
  <circle cx="200" cy="108" r="47" fill="none" stroke="#e8c97a" stroke-width="0.5" stroke-opacity="0.22"/>
  <!-- Frame -->
  <rect x="6" y="6" width="388" height="588" rx="8" fill="none" stroke="#c9a84c" stroke-width="1.2" stroke-opacity="0.5"/>
  <rect x="12" y="12" width="376" height="576" rx="5" fill="none" stroke="#c9a84c" stroke-width="0.5" stroke-opacity="0.18"/>
  <!-- Panel -->
  <rect x="18" y="528" width="364" height="66" rx="6" fill="#020408" opacity="0.88"/>
  <line x1="46" y1="535" x2="354" y2="535" stroke="#c9a84c" stroke-width="0.5" stroke-opacity="0.28"/>
  <text x="200" y="548" text-anchor="middle" font-family="Arial,sans-serif" font-size="8" fill="#c9a84c" letter-spacing="3" opacity="0.9">SAN GABRIEL ARCÁNGEL · SAINT GABRIEL</text>
  <text x="200" y="567" text-anchor="middle" font-family="Georgia,serif" font-size="14" fill="#a8c0f0" font-style="italic">«Mensajero del Altísimo»</text>
  <text x="200" y="585" text-anchor="middle" font-family="Georgia,serif" font-size="11" fill="#f5e060" font-style="italic" opacity="0.8">«Messenger of the Most High»</text>

  <!-- Minimal facial features for visual consistency across intercessors -->
  <g id="tup-face-features" opacity="0.9">
    <ellipse id="tup-eye-left" cx="186" cy="108" rx="3.1" ry="2.2" fill="#2a1a12"/>
    <ellipse id="tup-eye-right" cx="214" cy="108" rx="3.1" ry="2.2" fill="#2a1a12"/>
    <path id="tup-nose" d="M200 112 C198 118, 198 120, 200 123" stroke="#7b4a35" stroke-width="1.6" fill="none" stroke-linecap="round"/>
    <path id="tup-mouth" d="M192 132 Q200 137 208 132" stroke="#8f3a3a" stroke-width="1.8" fill="none" stroke-linecap="round"/>
  </g>
</svg>
