<svg xmlns="http://www.w3.org/2000/svg" viewBox="0 0 400 600" role="img" aria-label="San Judas Tadeo">
  <rect width="400" height="600" fill="#081225"/>
  <circle cx="200" cy="150" r="58" fill="none" stroke="#e8c97a" stroke-width="3" opacity="0.7"/>
  <circle cx="200" cy="150" r="44" fill="none" stroke="#28a860" stroke-width="2" opacity="0.35"/>
  <path d="M155 170 Q200 132 245 170 L268 396 Q200 425 132 396 Z" fill="#1f7a42"/>
  <path d="M140 188 Q122 236 118 292" stroke="#1a3a8a" stroke-width="18" stroke-linecap="round" fill="none" opacity="0.85"/>
  <path d="M260 188 Q278 236 282 292" stroke="#1a3a8a" stroke-width="18" stroke-linecap="round" fill="none" opacity="0.75"/>
  <circle cx="120" cy="295" r="12" fill="#d7a06d"/>
  <circle cx="280" cy="295" r="12" fill="#d7a06d"/>
  <rect x="118" y="300" width="6" height="112" rx="3" fill="#6f4e24"/>
  <circle cx="283" cy="300" r="12" fill="#c9a84c" opacity="0.85"/>
  <rect x="193" y="132" width="14" height="18" rx="4" fill="#d7a06d"/>
  <circle cx="200" cy="106" r="30" fill="#c89060"/>
  <path d="M173 108 Q176 74 200 70 Q224 74 227 108 Q218 88 200 86 Q182 88 173 108Z" fill="#261106"/>
  <path d="M181 132 Q190 147 200 149 Q210 147 219 132" fill="none" stroke="#261106" stroke-width="10" stroke-linecap="round"/>
  <text x="200" y="548" text-anchor="middle" font-family="Arial,sans-serif" font-size="10" fill="#c9a84c" letter-spacing="2">SAN JUDAS TADEO</text>
</svg>