<svg xmlns="http://www.w3.org/2000/svg" viewBox="0 0 400 600">
  <defs>
    <radialGradient id="sjd-bg" cx="50%" cy="35%" r="65%">
      <stop offset="0%" stop-color="#140408"/><stop offset="100%" stop-color="#060002"/>
    </radialGradient>
    <radialGradient id="sjd-atm" cx="50%" cy="38%" r="46%">
      <stop offset="0%" stop-color="#8a1a2a" stop-opacity="0.26"/><stop offset="100%" stop-color="#8a1a2a" stop-opacity="0"/>
    </radialGradient>
    <radialGradient id="sjd-glow" cx="50%" cy="45%" r="35%">
      <stop offset="0%" stop-color="#f8d060" stop-opacity="0.22"/><stop offset="100%" stop-color="#f8d060" stop-opacity="0"/>
    </radialGradient>
    <linearGradient id="sjd-r1" x1="50%" y1="0%" x2="10%" y2="100%">
      <stop offset="0%" stop-color="#c03040" stop-opacity="1"/><stop offset="100%" stop-color="#601020" stop-opacity="0.4"/>
    </linearGradient>
    <linearGradient id="sjd-r2" x1="50%" y1="0%" x2="90%" y2="100%">
      <stop offset="0%" stop-color="#f5e060" stop-opacity="1"/><stop offset="100%" stop-color="#c9a84c" stop-opacity="0.4"/>
    </linearGradient>
    <filter id="sjd-gl"><feGaussianBlur stdDeviation="9" result="b"/><feMerge><feMergeNode in="b"/><feMergeNode in="b"/><feMergeNode in="SourceGraphic"/></feMerge></filter>
    <filter id="sjd-g2"><feGaussianBlur stdDeviation="5" result="b"/><feMerge><feMergeNode in="b"/><feMergeNode in="SourceGraphic"/></feMerge></filter>
    <filter id="sjd-rg"><feGaussianBlur stdDeviation="3" result="b"/><feMerge><feMergeNode in="b"/><feMergeNode in="SourceGraphic"/></feMerge></filter>
  </defs>
  <rect width="400" height="600" fill="url(#sjd-bg)"/>
  <rect width="400" height="600" fill="url(#sjd-atm)"/>
  <!-- Guadalupe golden glow (chest area / tilma) -->
  <rect width="400" height="600" fill="url(#sjd-glow)"/>
  <!-- Rays: rose-red left, gold right -->
  <polygon points="198,264 -25,610 115,610" fill="url(#sjd-r1)" filter="url(#sjd-gl)" opacity="0.72"/>
  <polygon points="198,264 20,600  85,600"  fill="#c03040" opacity="0.36"/>
  <polygon points="202,264 425,610 285,610" fill="url(#sjd-r2)" filter="url(#sjd-gl)" opacity="0.72"/>
  <polygon points="202,264 375,600 315,600" fill="#f5e060" opacity="0.34"/>
  <!-- Tilma/ayate (rough woven maguey cloak, draped over shoulders) -->
  <path d="M148,155 Q112,205 100,465 Q148,480 200,482 Q252,480 300,465 Q288,205 252,155 Q230,175 200,177 Q170,175 148,155 Z" fill="#c8b078" opacity="0.80"/>
  <!-- Tilma texture / weave lines (subtle) -->
  <path d="M148,155 Q120,260 112,440" stroke="#a09050" stroke-width="0.8" fill="none" opacity="0.35"/>
  <path d="M252,155 Q280,260 288,440" stroke="#a09050" stroke-width="0.8" fill="none" opacity="0.35"/>
  <!-- White tunic under tilma (collar visible) -->
  <path d="M178,165 Q170,195 166,270 Q182,278 200,279 Q218,278 234,270 Q230,195 222,165 Q212,175 200,177 Q188,175 178,165 Z" fill="#e8e4d8" opacity="0.85"/>
  <!-- Guadalupe image on tilma (small, luminous, chest area) -->
  <ellipse cx="200" cy="310" rx="22" ry="30" fill="#f8e8c8" opacity="0.35" filter="url(#sjd-g2)"/>
  <ellipse cx="200" cy="310" rx="14" ry="20" fill="#f0d8a0" opacity="0.28"/>
  <!-- Roses falling from tilma (left arm) -->
  <!-- Arm gathering roses -->
  <path d="M148,195 Q112,240 102,308 Q116,318 130,312 Q137,274 154,225 Z" fill="#c8b078" opacity="0.80"/>
  <!-- Several roses: deep red -->
  <circle cx="110" cy="315" r="8" fill="#c03040" opacity="0.88" filter="url(#sjd-rg)"/>
  <circle cx="118" cy="330" r="7" fill="#d04050" opacity="0.80" filter="url(#sjd-rg)"/>
  <circle cx="98"  cy="326" r="6" fill="#b02030" opacity="0.78" filter="url(#sjd-rg)"/>
  <circle cx="124" cy="318" r="5" fill="#c83850" opacity="0.75"/>
  <circle cx="104" cy="340" r="5" fill="#d84858" opacity="0.70"/>
  <!-- Rose petals (falling) -->
  <ellipse cx="132" cy="348" rx="4" ry="7" fill="#e05060" opacity="0.55" transform="rotate(20,132,348)"/>
  <ellipse cx="92"  cy="350" rx="3" ry="6" fill="#c03040" opacity="0.50" transform="rotate(-15,92,350)"/>
  <!-- Right arm (slightly raised, open hand — presenting) -->
  <path d="M252,195 Q286,235 296,295 Q283,306 269,300 Q263,268 250,228 Z" fill="#c8b078" opacity="0.80"/>
  <ellipse cx="292" cy="299" rx="13" ry="9" fill="#b8906a" opacity="0.88"/>
  <!-- Left hand holding tilma fold -->
  <ellipse cx="106" cy="312" rx="12" ry="8" fill="#b8906a" opacity="0.88"/>
  <!-- Neck -->
  <rect x="193" y="143" width="14" height="18" rx="4" fill="#b8906a" opacity="0.88"/>
  <!-- Head (indigenous features) -->
  <ellipse cx="200" cy="108" rx="27" ry="31" fill="#b8906a" opacity="0.92"/>
  <!-- Dark straight hair -->
  <path d="M173,102 Q175,62 200,56 Q225,62 227,102 Q220,76 200,74 Q180,76 173,102 Z" fill="#140808" opacity="0.92"/>
  <ellipse cx="172" cy="116" rx="7" ry="19" fill="#140808" opacity="0.80"/>
  <ellipse cx="228" cy="116" rx="7" ry="19" fill="#140808" opacity="0.80"/>
  <!-- Eyes (dark, devout, downward gaze) -->
  <ellipse cx="189" cy="109" rx="5" ry="4" fill="#0a0606"/>
  <ellipse cx="211" cy="109" rx="5" ry="4" fill="#0a0606"/>
  <circle cx="190" cy="108" r="1.5" fill="#ffffff" opacity="0.35"/>
  <circle cx="212" cy="108" r="1.5" fill="#ffffff" opacity="0.35"/>
  <!-- Halo: two thin gold rings -->
  <circle cx="200" cy="108" r="53" fill="none" stroke="#e8c97a" stroke-width="1.8" stroke-opacity="0.65" filter="url(#sjd-g2)"/>
  <circle cx="200" cy="108" r="47" fill="none" stroke="#e8c97a" stroke-width="0.5" stroke-opacity="0.22"/>
  <!-- Double frame -->
  <rect x="6" y="6" width="388" height="588" rx="8" fill="none" stroke="#c9a84c" stroke-width="1.2" stroke-opacity="0.5"/>
  <rect x="12" y="12" width="376" height="576" rx="5" fill="none" stroke="#c9a84c" stroke-width="0.5" stroke-opacity="0.18"/>
  <!-- Panel -->
  <rect x="18" y="528" width="364" height="66" rx="6" fill="#060002" opacity="0.88"/>
  <line x1="46" y1="535" x2="354" y2="535" stroke="#c9a84c" stroke-width="0.5" stroke-opacity="0.28"/>
  <text x="200" y="548" text-anchor="middle" font-family="Arial,sans-serif" font-size="8" fill="#c9a84c" letter-spacing="2" opacity="0.9">SAN JUAN DIEGO · SAINT JUAN DIEGO</text>
  <text x="200" y="567" text-anchor="middle" font-family="Georgia,serif" font-size="13" fill="#e08090" font-style="italic">«Mensajero de Nuestra Señora»</text>
  <text x="200" y="585" text-anchor="middle" font-family="Georgia,serif" font-size="11" fill="#f5e060" font-style="italic" opacity="0.8">«Messenger of Our Lady»</text>

  <!-- Minimal facial features for visual consistency across intercessors -->
  <g id="tup-face-features" opacity="0.9">
    <ellipse id="tup-eye-left" cx="186" cy="108" rx="3.1" ry="2.2" fill="#2a1a12"/>
    <ellipse id="tup-eye-right" cx="214" cy="108" rx="3.1" ry="2.2" fill="#2a1a12"/>
    <path id="tup-nose" d="M200 112 C198 118, 198 120, 200 123" stroke="#7b4a35" stroke-width="1.6" fill="none" stroke-linecap="round"/>
    <path id="tup-mouth" d="M192 132 Q200 137 208 132" stroke="#8f3a3a" stroke-width="1.8" fill="none" stroke-linecap="round"/>
  </g>
</svg>
