<?xml version="1.0" encoding="UTF-8"?>
<svg xmlns="http://www.w3.org/2000/svg" viewBox="0 0 400 600">
  <defs>
    <radialGradient id="bg" cx="50%" cy="35%" r="65%">
      <stop offset="0%" stop-color="#14070a"/>
      <stop offset="100%" stop-color="#070305"/>
    </radialGradient>
    <linearGradient id="r1" x1="50%" y1="0%" x2="10%" y2="100%">
      <stop offset="0%" stop-color="#a01818" stop-opacity="1"/>
      <stop offset="100%" stop-color="#4a0810" stop-opacity="0.42"/>
    </linearGradient>
    <linearGradient id="r2" x1="50%" y1="0%" x2="90%" y2="100%">
      <stop offset="0%" stop-color="#f5e060" stop-opacity="1"/>
      <stop offset="100%" stop-color="#c9a84c" stop-opacity="0.4"/>
    </linearGradient>
    <filter id="gl">
      <feGaussianBlur stdDeviation="9" result="b"/>
      <feMerge><feMergeNode in="b"/><feMergeNode in="b"/><feMergeNode in="SourceGraphic"/></feMerge>
    </filter>
  </defs>
  <rect width="400" height="600" fill="url(#bg)"/>
  <polygon points="198,265 -25,610 115,610" fill="url(#r1)" filter="url(#gl)" opacity="0.72"/>
  <polygon points="202,265 425,610 285,610" fill="url(#r2)" filter="url(#gl)" opacity="0.70"/>
  <path d="M168,155 Q140,205 126,390 Q200,415 274,390 Q260,205 232,155 Z" fill="#7a3a2a" opacity="0.92"/>
  <path d="M140,215 Q92,218 72,208" stroke="#7a3a2a" stroke-width="17" fill="none" stroke-linecap="round" opacity="0.86"/>
  <path d="M260,215 Q308,218 328,208" stroke="#562118" stroke-width="16" fill="none" stroke-linecap="round" opacity="0.82"/>
  <ellipse cx="71" cy="206" rx="12" ry="15" fill="#c8a060" opacity="0.9"/>
  <ellipse cx="329" cy="206" rx="12" ry="15" fill="#c8a060" opacity="0.9"/>
  <line x1="200" y1="225" x2="200" y2="255" stroke="#d4b060" stroke-width="4" opacity="0.72"/>
  <line x1="188" y1="228" x2="212" y2="228" stroke="#d4b060" stroke-width="4" opacity="0.72"/>
  <rect x="193" y="142" width="14" height="16" rx="4" fill="#c8a060" opacity="0.9"/>
  <ellipse cx="200" cy="108" rx="26" ry="30" fill="#c8a060" opacity="0.92"/>
  <path d="M174,107 Q176,72 200,68 Q224,72 226,107 Q219,86 200,84 Q181,86 174,107 Z" fill="#4d2616" opacity="0.82"/>
  <path d="M184,102 Q190,100 196,102" fill="none" stroke="#120909" stroke-width="1.8" stroke-linecap="round" opacity="0.85"/>
  <path d="M204,102 Q210,100 216,102" fill="none" stroke="#120909" stroke-width="1.8" stroke-linecap="round" opacity="0.85"/>
  <ellipse cx="190" cy="109" rx="3.0" ry="2.3" fill="#120909"/>
  <ellipse cx="210" cy="109" rx="3.0" ry="2.3" fill="#120909"/>
  <circle cx="191" cy="107" r="1" fill="#ffffff" opacity="0.45"/>
  <circle cx="211" cy="107" r="1" fill="#ffffff" opacity="0.45"/>
  <path d="M191,124 Q200,125 209,124" fill="none" stroke="#4d2616" stroke-width="2" stroke-linecap="round"/>
  <circle cx="200" cy="108" r="53" fill="none" stroke="#e8c97a" stroke-width="1.8" stroke-opacity="0.65"/>
  <rect x="6" y="6" width="388" height="588" rx="8" fill="none" stroke="#c9a84c" stroke-width="1.2" stroke-opacity="0.5"/>
  <rect x="18" y="528" width="364" height="66" rx="6" fill="#0a0502" opacity="0.86"/>
  <text x="200" y="548" text-anchor="middle" font-family="Arial,sans-serif" font-size="8" fill="#c9a84c" letter-spacing="2">SAN MAXIMILIANO KOLBE - ST MAXIMILIAN KOLBE</text>
  <text x="200" y="567" text-anchor="middle" font-family="Georgia,serif" font-size="14" fill="#d09840" font-style="italic">Conversion and martyrdom</text>
  <text x="200" y="585" text-anchor="middle" font-family="Georgia,serif" font-size="11" fill="#f5e060" font-style="italic" opacity="0.8">Consecration and sacrifice</text>
</svg>
