<svg xmlns="http://www.w3.org/2000/svg" viewBox="0 0 400 600">
  <defs>
    <radialGradient id="op-bg" cx="50%" cy="35%" r="65%">
      <stop offset="0%" stop-color="#070e07"/><stop offset="100%" stop-color="#020502"/>
    </radialGradient>
    <radialGradient id="op-atm" cx="50%" cy="38%" r="46%">
      <stop offset="0%" stop-color="#1a5a28" stop-opacity="0.28"/><stop offset="100%" stop-color="#1a5a28" stop-opacity="0"/>
    </radialGradient>
    <linearGradient id="op-r1" x1="50%" y1="0%" x2="10%" y2="100%">
      <stop offset="0%" stop-color="#2a7838" stop-opacity="1"/><stop offset="100%" stop-color="#0a2010" stop-opacity="0.4"/>
    </linearGradient>
    <linearGradient id="op-r2" x1="50%" y1="0%" x2="90%" y2="100%">
      <stop offset="0%" stop-color="#f5e060" stop-opacity="1"/><stop offset="100%" stop-color="#c9a84c" stop-opacity="0.4"/>
    </linearGradient>
    <linearGradient id="op-cope" x1="0%" y1="0%" x2="0%" y2="100%">
      <stop offset="0%" stop-color="#6a2a90"/><stop offset="100%" stop-color="#2e0a50"/>
    </linearGradient>
    <filter id="op-gl"><feGaussianBlur stdDeviation="9" result="b"/><feMerge><feMergeNode in="b"/><feMergeNode in="b"/><feMergeNode in="SourceGraphic"/></feMerge></filter>
    <filter id="op-g2"><feGaussianBlur stdDeviation="5" result="b"/><feMerge><feMergeNode in="b"/><feMergeNode in="SourceGraphic"/></feMerge></filter>
  </defs>
  <rect width="400" height="600" fill="url(#op-bg)"/>
  <rect width="400" height="600" fill="url(#op-atm)"/>
  <!-- Stars -->
  <circle cx="52"  cy="28"  r="1.5" fill="#a0c8a0" opacity="0.70"/>
  <circle cx="112" cy="16"  r="1"   fill="#a0c8a0" opacity="0.55"/>
  <circle cx="300" cy="22"  r="1"   fill="#a0c8a0" opacity="0.50"/>
  <circle cx="358" cy="42"  r="1.5" fill="#a0c8a0" opacity="0.65"/>
  <circle cx="38"  cy="75"  r="1"   fill="#a0c8a0" opacity="0.50"/>
  <!-- Irish rolling hills silhouette -->
  <path d="M0,380 Q80,345 170,368 Q260,342 340,362 Q370,352 400,370 L400,525 L0,525 Z" fill="#0a1a0a" opacity="0.38"/>
  <path d="M0,400 Q60,382 140,395 Q220,375 300,390 Q350,382 400,396 L400,525 L0,525 Z" fill="#0d200d" opacity="0.28"/>
  <!-- Rays: green left, gold right -->
  <polygon points="198,264 -20,610 110,610" fill="url(#op-r1)" filter="url(#op-gl)" opacity="0.72"/>
  <polygon points="198,264  25,600  85,600" fill="#2a7838" opacity="0.34"/>
  <polygon points="202,264 420,610 290,610" fill="url(#op-r2)" filter="url(#op-gl)" opacity="0.70"/>
  <polygon points="202,264 370,600 310,600" fill="#f5e060" opacity="0.32"/>
  <!-- Cope/chasuble (episcopal outer vestment, purple) -->
  <path d="M144,164 Q104,228 102,492 L298,492 Q296,228 256,164 Q228,182 200,184 Q172,182 144,164 Z" fill="url(#op-cope)" opacity="0.88"/>
  <!-- Orphrey (gold vertical band on cope) -->
  <rect x="196" y="164" width="8" height="300" rx="3" fill="#c9a84c" opacity="0.40"/>
  <!-- Orphrey horizontal band (across chest) -->
  <rect x="130" y="228" width="140" height="10" rx="3" fill="#c9a84c" opacity="0.35"/>
  <!-- White alb visible at collar -->
  <path d="M182,162 Q200,170 218,162 Q210,182 200,186 Q190,182 182,162 Z" fill="#e8e8e0" opacity="0.72"/>
  <!-- Left arm holding crozier -->
  <path d="M144,164 Q100,202 112,316 Q128,328 144,322 Q136,248 160,200 Z" fill="url(#op-cope)" opacity="0.88"/>
  <ellipse cx="118" cy="322" rx="13" ry="9" fill="#d4a878" opacity="0.88"/>
  <!-- Crozier shaft (gold) -->
  <line x1="114" y1="492" x2="114" y2="196" stroke="#c9a030" stroke-width="7" stroke-linecap="round"/>
  <!-- Crozier crook -->
  <path d="M114,196 Q114,166 134,156 Q158,146 163,166 Q167,184 148,190 Q134,194 128,202" stroke="#c9a030" stroke-width="7" fill="none" stroke-linecap="round" stroke-linejoin="round"/>
  <!-- Crozier cross-band (decorative) -->
  <line x1="106" y1="380" x2="122" y2="380" stroke="#c9a030" stroke-width="3" stroke-opacity="0.60"/>
  <!-- Right arm holding palm of martyrdom -->
  <path d="M256,164 Q296,202 288,296 Q274,308 260,302 Q262,256 244,200 Z" fill="url(#op-cope)" opacity="0.88"/>
  <ellipse cx="284" cy="302" rx="13" ry="9" fill="#d4a878" opacity="0.88"/>
  <!-- Palm branch -->
  <line x1="282" y1="492" x2="276" y2="172" stroke="#5a8020" stroke-width="5" stroke-linecap="round"/>
  <ellipse cx="266" cy="186" rx="14" ry="5" fill="#6aaa28" opacity="0.88" transform="rotate(-28,266,186)"/>
  <ellipse cx="278" cy="178" rx="14" ry="5" fill="#7ac030" opacity="0.85" transform="rotate(-8,278,178)"/>
  <ellipse cx="288" cy="183" rx="13" ry="5" fill="#6aaa28" opacity="0.80" transform="rotate(18,288,183)"/>
  <ellipse cx="270" cy="198" rx="12" ry="4" fill="#88c838" opacity="0.75" transform="rotate(-45,270,198)"/>
  <ellipse cx="262" cy="200" rx="11" ry="4" fill="#7ac030" opacity="0.70" transform="rotate(-62,262,200)"/>
  <!-- Pectoral cross on cope -->
  <rect x="197" y="282" width="7" height="20" rx="2" fill="#c9a84c" opacity="0.90"/>
  <rect x="191" y="289" width="19" height="6" rx="2" fill="#c9a84c" opacity="0.90"/>
  <!-- Neck -->
  <rect x="193" y="144" width="14" height="18" rx="4" fill="#d4a878" opacity="0.88"/>
  <!-- Head -->
  <ellipse cx="200" cy="108" rx="27" ry="30" fill="#d4a878" opacity="0.92"/>
  <!-- Short dark hair (17th century priestly style) -->
  <path d="M173,100 Q174,63 200,57 Q226,63 227,100 Q220,76 200,74 Q180,76 173,100 Z" fill="#180c04" opacity="0.90"/>
  <!-- Eyes (dark, steady gaze) -->
  <ellipse cx="189" cy="109" rx="5" ry="4" fill="#0e0808"/>
  <ellipse cx="211" cy="109" rx="5" ry="4" fill="#0e0808"/>
  <circle cx="190" cy="108" r="1.5" fill="#ffffff" opacity="0.40"/>
  <circle cx="212" cy="108" r="1.5" fill="#ffffff" opacity="0.40"/>
  <!-- Brow -->
  <path d="M182,101 Q189,98 195,101" stroke="#180c04" stroke-width="1.8" fill="none"/>
  <path d="M205,101 Q211,98 218,101" stroke="#180c04" stroke-width="1.8" fill="none"/>
  <!-- Halo rings -->
  <circle cx="200" cy="108" r="53" fill="none" stroke="#e8c97a" stroke-width="1.8" stroke-opacity="0.65" filter="url(#op-g2)"/>
  <circle cx="200" cy="108" r="47" fill="none" stroke="#e8c97a" stroke-width="0.5" stroke-opacity="0.22"/>
  <!-- Double golden frame -->
  <rect x="6"  y="6"  width="388" height="588" rx="8" fill="none" stroke="#c9a84c" stroke-width="1.2" stroke-opacity="0.5"/>
  <rect x="12" y="12" width="376" height="576" rx="5" fill="none" stroke="#c9a84c" stroke-width="0.5" stroke-opacity="0.18"/>
  <!-- Name panel -->
  <rect x="18" y="528" width="364" height="66" rx="6" fill="#020502" opacity="0.88"/>
  <line x1="46" y1="535" x2="354" y2="535" stroke="#c9a84c" stroke-width="0.5" stroke-opacity="0.28"/>
  <text x="200" y="548" text-anchor="middle" font-family="Arial,sans-serif" font-size="8" fill="#c9a84c" letter-spacing="3" opacity="0.9">SAN OLIVER PLUNKETT · ST. OLIVER PLUNKETT</text>
  <text x="200" y="567" text-anchor="middle" font-family="Georgia,serif" font-size="13" fill="#70ba88" font-style="italic">«Mártir, Arzobispo de Armagh, Irlanda»</text>
  <text x="200" y="585" text-anchor="middle" font-family="Georgia,serif" font-size="11" fill="#f5e060" font-style="italic" opacity="0.8">«Martyr, Archbishop of Armagh, Ireland»</text>
</svg>
