<svg xmlns="http://www.w3.org/2000/svg" viewBox="0 0 400 600">
  <defs>
    <radialGradient id="spt-bg" cx="50%" cy="35%" r="65%">
      <stop offset="0%" stop-color="#080c14"/><stop offset="100%" stop-color="#020306"/>
    </radialGradient>
    <radialGradient id="spt-atm" cx="50%" cy="38%" r="46%">
      <stop offset="0%" stop-color="#1a3a7a" stop-opacity="0.26"/><stop offset="100%" stop-color="#1a3a7a" stop-opacity="0"/>
    </radialGradient>
    <linearGradient id="spt-r1" x1="50%" y1="0%" x2="10%" y2="100%">
      <stop offset="0%" stop-color="#2a50a0" stop-opacity="1"/><stop offset="100%" stop-color="#080e28" stop-opacity="0.4"/>
    </linearGradient>
    <linearGradient id="spt-r2" x1="50%" y1="0%" x2="90%" y2="100%">
      <stop offset="0%" stop-color="#f5e060" stop-opacity="1"/><stop offset="100%" stop-color="#c9a84c" stop-opacity="0.4"/>
    </linearGradient>
    <linearGradient id="spt-mantle" x1="0%" y1="0%" x2="0%" y2="100%">
      <stop offset="0%" stop-color="#c87020"/><stop offset="100%" stop-color="#603008"/>
    </linearGradient>
    <linearGradient id="spt-robe" x1="0%" y1="0%" x2="0%" y2="100%">
      <stop offset="0%" stop-color="#2a50a0"/><stop offset="100%" stop-color="#0a1840"/>
    </linearGradient>
    <filter id="spt-gl"><feGaussianBlur stdDeviation="9" result="b"/><feMerge><feMergeNode in="b"/><feMergeNode in="b"/><feMergeNode in="SourceGraphic"/></feMerge></filter>
    <filter id="spt-g2"><feGaussianBlur stdDeviation="5" result="b"/><feMerge><feMergeNode in="b"/><feMergeNode in="SourceGraphic"/></feMerge></filter>
  </defs>
  <rect width="400" height="600" fill="url(#spt-bg)"/>
  <rect width="400" height="600" fill="url(#spt-atm)"/>
  <!-- Stars -->
  <circle cx="48"  cy="28"  r="1.5" fill="#b8c8e8" opacity="0.70"/>
  <circle cx="112" cy="16"  r="1"   fill="#b8c8e8" opacity="0.55"/>
  <circle cx="298" cy="22"  r="1"   fill="#b8c8e8" opacity="0.52"/>
  <circle cx="356" cy="44"  r="1.5" fill="#b8c8e8" opacity="0.65"/>
  <circle cx="36"  cy="76"  r="1"   fill="#b8c8e8" opacity="0.48"/>
  <circle cx="376" cy="70"  r="1"   fill="#b8c8e8" opacity="0.52"/>
  <!-- Subtle water / Sea of Galilee background -->
  <path d="M0,410 Q100,390 200,408 Q300,388 400,408 L400,525 L0,525 Z" fill="#0a1428" opacity="0.45"/>
  <path d="M0,430 Q60,418 130,428 Q200,412 270,425 Q340,414 400,426 L400,525 L0,525 Z" fill="#0e1c38" opacity="0.30"/>
  <!-- Inverted cross (very subtle, Peter's martyrdom symbol) -->
  <line x1="200" y1="400" x2="200" y2="500" stroke="#1a3070" stroke-width="4" opacity="0.18"/>
  <line x1="172" y1="420" x2="228" y2="420" stroke="#1a3070" stroke-width="4" opacity="0.18"/>
  <!-- Rays: blue left, gold right -->
  <polygon points="198,264 -20,610 112,610" fill="url(#spt-r1)" filter="url(#spt-gl)" opacity="0.72"/>
  <polygon points="198,264  25,600  88,600" fill="#2a50a0" opacity="0.34"/>
  <polygon points="202,264 420,610 288,610" fill="url(#spt-r2)" filter="url(#spt-gl)" opacity="0.70"/>
  <polygon points="202,264 372,600 312,600" fill="#f5e060" opacity="0.32"/>
  <!-- Orange-ochre outer mantle (Peter's traditional outer cloak) -->
  <path d="M110,216 Q128,206 160,200 L158,492 Q120,478 108,446 Z" fill="url(#spt-mantle)" opacity="0.80"/>
  <path d="M290,216 Q272,206 240,200 L242,492 Q280,478 292,446 Z" fill="url(#spt-mantle)" opacity="0.80"/>
  <!-- Blue apostle robe (chiton) -->
  <path d="M158,162 Q132,214 130,492 L270,492 Q268,214 242,162 Q220,178 200,180 Q180,178 158,162 Z" fill="url(#spt-robe)" opacity="0.86"/>
  <!-- Left arm — holds large scroll (Gospel/Epistles) -->
  <path d="M158,192 Q118,232 114,308 Q128,320 144,314 Q148,272 164,220 Z" fill="url(#spt-mantle)" opacity="0.80"/>
  <ellipse cx="120" cy="318" rx="14" ry="10" fill="#d4a878" opacity="0.88"/>
  <!-- Scroll in left hand -->
  <rect x="94" y="302" width="36" height="52" rx="8" fill="#d8c898" opacity="0.88"/>
  <rect x="94" y="302" width="36" height="6" rx="3" fill="#a89060" opacity="0.80"/>
  <rect x="94" y="348" width="36" height="6" rx="3" fill="#a89060" opacity="0.80"/>
  <line x1="106" y1="308" x2="106" y2="348" stroke="#8a7040" stroke-width="0.8" opacity="0.50"/>
  <line x1="114" y1="308" x2="114" y2="348" stroke="#8a7040" stroke-width="0.8" opacity="0.50"/>
  <line x1="122" y1="308" x2="122" y2="348" stroke="#8a7040" stroke-width="0.8" opacity="0.45"/>
  <!-- Right arm raised — holding two crossed gold keys (THE Peter symbol) -->
  <path d="M242,192 Q276,226 282,300 Q268,312 254,306 Q258,264 244,216 Z" fill="url(#spt-mantle)" opacity="0.80"/>
  <ellipse cx="278" cy="306" rx="14" ry="10" fill="#d4a878" opacity="0.88"/>
  <!-- KEY 1: gold, blade upper right, shaft lower left (foreground) -->
  <line x1="252" y1="380" x2="296" y2="248" stroke="#c9a030" stroke-width="9" stroke-linecap="round"/>
  <circle cx="298" cy="244" r="16" fill="none" stroke="#c9a030" stroke-width="8"/>
  <line x1="284" y1="278" x2="296" y2="268" stroke="#c9a030" stroke-width="6" stroke-linecap="round"/>
  <line x1="276" y1="294" x2="288" y2="284" stroke="#c9a030" stroke-width="6" stroke-linecap="round"/>
  <!-- KEY 2: silver-gold, blade upper left, shaft lower right (background) -->
  <line x1="248" y1="380" x2="204" y2="248" stroke="#e8d880" stroke-width="7" stroke-linecap="round" opacity="0.85"/>
  <circle cx="202" cy="244" r="14" fill="none" stroke="#e8d880" stroke-width="7" opacity="0.85"/>
  <line x1="214" y1="278" x2="202" y2="268" stroke="#e8d880" stroke-width="5" stroke-linecap="round" opacity="0.85"/>
  <line x1="222" y1="294" x2="210" y2="284" stroke="#e8d880" stroke-width="5" stroke-linecap="round" opacity="0.85"/>
  <!-- Neck -->
  <rect x="193" y="144" width="14" height="18" rx="4" fill="#d4a878" opacity="0.88"/>
  <!-- Head (Peter: older fisherman, strong features, curly/wavy grey-dark hair) -->
  <ellipse cx="200" cy="108" rx="27" ry="30" fill="#d4a878" opacity="0.92"/>
  <!-- Wavy hair (mix of grey-dark: fisherman aged ~50-60) -->
  <path d="M173,100 Q174,63 200,57 Q226,63 227,100 Q218,74 200,72 Q182,74 173,100 Z" fill="#302820" opacity="0.85"/>
  <!-- Short beard (Peter traditionally shown with full beard) -->
  <path d="M178,128 Q186,140 200,143 Q214,140 222,128 Q216,136 200,138 Q184,136 178,128 Z" fill="#302820" opacity="0.82"/>
  <!-- Eyes (resolute, experienced gaze) -->
  <ellipse cx="189" cy="109" rx="5" ry="4" fill="#0e0808"/>
  <ellipse cx="211" cy="109" rx="5" ry="4" fill="#0e0808"/>
  <circle cx="190" cy="108" r="1.5" fill="#ffffff" opacity="0.40"/>
  <circle cx="212" cy="108" r="1.5" fill="#ffffff" opacity="0.40"/>
  <!-- Strong brow -->
  <path d="M181,100 Q188,96 195,100" stroke="#302820" stroke-width="2.2" fill="none"/>
  <path d="M205,100 Q212,96 219,100" stroke="#302820" stroke-width="2.2" fill="none"/>
  <!-- Halo rings -->
  <circle cx="200" cy="108" r="53" fill="none" stroke="#e8c97a" stroke-width="1.8" stroke-opacity="0.65" filter="url(#spt-g2)"/>
  <circle cx="200" cy="108" r="47" fill="none" stroke="#e8c97a" stroke-width="0.5" stroke-opacity="0.22"/>
  <!-- Double golden frame -->
  <rect x="6"  y="6"  width="388" height="588" rx="8" fill="none" stroke="#c9a84c" stroke-width="1.2" stroke-opacity="0.5"/>
  <rect x="12" y="12" width="376" height="576" rx="5" fill="none" stroke="#c9a84c" stroke-width="0.5" stroke-opacity="0.18"/>
  <!-- Name panel -->
  <rect x="18" y="528" width="364" height="66" rx="6" fill="#020306" opacity="0.88"/>
  <line x1="46" y1="535" x2="354" y2="535" stroke="#c9a84c" stroke-width="0.5" stroke-opacity="0.28"/>
  <text x="200" y="548" text-anchor="middle" font-family="Arial,sans-serif" font-size="8" fill="#c9a84c" letter-spacing="3" opacity="0.9">SAN PEDRO APÓSTOL · SAINT PETER</text>
  <text x="200" y="567" text-anchor="middle" font-family="Georgia,serif" font-size="13" fill="#6888d0" font-style="italic">«Príncipe de los Apóstoles, Primer Papa»</text>
  <text x="200" y="585" text-anchor="middle" font-family="Georgia,serif" font-size="11" fill="#f5e060" font-style="italic" opacity="0.8">«Prince of the Apostles, First Pope»</text>

  <!-- Minimal facial features for visual consistency across intercessors -->
  <g id="tup-face-features" opacity="0.9">
    <ellipse id="tup-eye-left" cx="186" cy="108" rx="3.1" ry="2.2" fill="#2a1a12"/>
    <ellipse id="tup-eye-right" cx="214" cy="108" rx="3.1" ry="2.2" fill="#2a1a12"/>
    <path id="tup-nose" d="M200 112 C198 118, 198 120, 200 123" stroke="#7b4a35" stroke-width="1.6" fill="none" stroke-linecap="round"/>
    <path id="tup-mouth" d="M192 132 Q200 137 208 132" stroke="#8f3a3a" stroke-width="1.8" fill="none" stroke-linecap="round"/>
  </g>
</svg>
