<?xml version="1.0" encoding="UTF-8"?>
<svg xmlns="http://www.w3.org/2000/svg" viewBox="0 0 400 600">
  <defs>
    <style>
    </style>
    <radialGradient id="bg" cx="50%" cy="35%" r="65%">
      <stop offset="0%" stop-color="#120b1a"/>
      <stop offset="100%" stop-color="#050308"/>
    </radialGradient>
    <linearGradient id="r1" x1="50%" y1="0%" x2="10%" y2="100%">
      <stop offset="0%" stop-color="#6b3aa6" stop-opacity="1"/>
      <stop offset="100%" stop-color="#2a1242" stop-opacity="0.42"/>
    </linearGradient>
    <linearGradient id="r2" x1="50%" y1="0%" x2="90%" y2="100%">
      <stop offset="0%" stop-color="#f5e060" stop-opacity="1"/>
      <stop offset="100%" stop-color="#c9a84c" stop-opacity="0.4"/>
    </linearGradient>
    <filter id="gl">
      <feGaussianBlur stdDeviation="9" result="b"/>
      <feMerge><feMergeNode in="b"/><feMergeNode in="b"/><feMergeNode in="SourceGraphic"/></feMerge>
    </filter>
  </defs>
  <rect width="400" height="600" fill="url(#bg)"/>
  <polygon points="198,265 -25,610 115,610" fill="url(#r1)" filter="url(#gl)" opacity="0.72"/>
  <polygon points="202,265 425,610 285,610" fill="url(#r2)" filter="url(#gl)" opacity="0.70"/>
  <path d="M168,155 Q140,205 126,390 Q200,415 274,390 Q260,205 232,155 Z" fill="#5c2d82" opacity="0.92"/>
  <path d="M140,215 Q92,218 72,208" stroke="#5c2d82" stroke-width="17" fill="none" stroke-linecap="round" opacity="0.86"/>
  <path d="M260,215 Q308,218 328,208" stroke="#3f1b5f" stroke-width="16" fill="none" stroke-linecap="round" opacity="0.82"/>
  <ellipse cx="71" cy="206" rx="12" ry="15" fill="#c8a060" opacity="0.9"/>
  <ellipse cx="329" cy="206" rx="12" ry="15" fill="#c8a060" opacity="0.9"/>
  <line x1="200" y1="190" x2="200" y2="236" stroke="#ead6ff" stroke-width="4" opacity="0.82"/>
  <line x1="186" y1="204" x2="214" y2="204" stroke="#ead6ff" stroke-width="4" opacity="0.82"/>
  <rect x="193" y="142" width="14" height="16" rx="4" fill="#c8a060" opacity="0.9"/>
  <ellipse cx="200" cy="108" rx="26" ry="30" fill="#c8a060" opacity="0.92"/>
  <path d="M174,107 Q176,72 200,68 Q224,72 226,107 Q219,86 200,84 Q181,86 174,107 Z" fill="#2a1242" opacity="0.82"/>
  <path d="M183,100 Q190,96 197,100" fill="none" stroke="#120909" stroke-width="1.9" stroke-linecap="round" opacity="0.75"/>
  <path d="M203,100 Q210,96 217,100" fill="none" stroke="#120909" stroke-width="1.9" stroke-linecap="round" opacity="0.75"/>
  <ellipse cx="190" cy="109" rx="4.1" ry="3.4" fill="#120909" opacity="0.95"/>
  <ellipse cx="210" cy="109" rx="4.1" ry="3.4" fill="#120909" opacity="0.95"/>
  <circle class="eye-left" cx="191" cy="107" r="1.6" fill="#ffffff" opacity="0.65"/>
  <circle class="eye-right" cx="211" cy="107" r="1.6" fill="#ffffff" opacity="0.65"/>
  <ellipse cx="192" cy="104" r="0.7" ry="0.5" fill="#ffffff" opacity="0.88"/>
  <ellipse cx="212" cy="104" r="0.7" ry="0.5" fill="#ffffff" opacity="0.88"/>
  <path d="M191,122 Q200,131 209,122" fill="none" stroke="#2a1242" stroke-width="2.3" stroke-linecap="round" opacity="0.92"/>
  <path d="M189,125 Q200,132 211,125" fill="none" stroke="#2a1242" stroke-width="1.5" stroke-linecap="round" opacity="0.65"/>
  <ellipse cx="195" cy="112" rx="2.4" ry="1.6" fill="#ead6ff" opacity="0.28"/>
  <ellipse cx="205" cy="112" rx="2.4" ry="1.6" fill="#ead6ff" opacity="0.28"/>
  <g class="symbol" opacity="0.55" transform="translate(200,96)">
    <path d="M-1,-3 Q0,-4 1,-3 L0.5,-0.5 Q0,0 -0.5,-0.5 Z" fill="#e8c97a" stroke="#d4a584" stroke-width="0.5"/>
  </g>
  <circle cx="200" cy="108" r="53" fill="none" stroke="#ead6ff" stroke-width="1.8" stroke-opacity="0.65"/>
  <rect x="6" y="6" width="388" height="588" rx="8" fill="none" stroke="#c9a84c" stroke-width="1.2" stroke-opacity="0.5"/>
  <rect x="18" y="528" width="364" height="66" rx="6" fill="#0a0502" opacity="0.86"/>
  <text x="200" y="548" text-anchor="middle" font-family="Arial,sans-serif" font-size="8" fill="#c9a84c" letter-spacing="2">SAINT ANGELA OF FOLIGNO - SANTA ANGELA DE FOLIGNO</text>
  <text x="200" y="567" text-anchor="middle" font-family="Georgia,serif" font-size="14" fill="#d09840" font-style="italic">Conversion and penance</text>
  <text x="200" y="585" text-anchor="middle" font-family="Georgia,serif" font-size="11" fill="#f5e060" font-style="italic" opacity="0.8">Prayer and humility</text>
</svg>
