<svg xmlns="http://www.w3.org/2000/svg" viewBox="0 0 400 600">
  <defs>
    <radialGradient id="se-bg" cx="50%" cy="35%" r="65%">
      <stop offset="0%" stop-color="#160e04"/><stop offset="100%" stop-color="#060200"/>
    </radialGradient>
    <radialGradient id="se-atm" cx="50%" cy="38%" r="46%">
      <stop offset="0%" stop-color="#8a5a10" stop-opacity="0.28"/><stop offset="100%" stop-color="#8a5a10" stop-opacity="0"/>
    </radialGradient>
    <linearGradient id="se-r1" x1="50%" y1="0%" x2="10%" y2="100%">
      <stop offset="0%" stop-color="#c09030" stop-opacity="1"/><stop offset="100%" stop-color="#603010" stop-opacity="0.4"/>
    </linearGradient>
    <linearGradient id="se-r2" x1="50%" y1="0%" x2="90%" y2="100%">
      <stop offset="0%" stop-color="#f5e060" stop-opacity="1"/><stop offset="100%" stop-color="#c9a84c" stop-opacity="0.4"/>
    </linearGradient>
    <filter id="se-gl"><feGaussianBlur stdDeviation="9" result="b"/><feMerge><feMergeNode in="b"/><feMergeNode in="b"/><feMergeNode in="SourceGraphic"/></feMerge></filter>
    <filter id="se-g2"><feGaussianBlur stdDeviation="5" result="b"/><feMerge><feMergeNode in="b"/><feMergeNode in="SourceGraphic"/></feMerge></filter>
  </defs>
  <rect width="400" height="600" fill="url(#se-bg)"/>
  <rect width="400" height="600" fill="url(#se-atm)"/>
  <!-- Rays: amber-gold left, bright gold right -->
  <polygon points="198,264 -25,610 115,610" fill="url(#se-r1)" filter="url(#se-gl)" opacity="0.74"/>
  <polygon points="198,264 20,600  85,600"  fill="#c09030" opacity="0.38"/>
  <polygon points="202,264 425,610 285,610" fill="url(#se-r2)" filter="url(#se-gl)" opacity="0.72"/>
  <polygon points="202,264 375,600 315,600" fill="#f5e060" opacity="0.36"/>
  <!-- Imperial robe (deep purple) -->
  <path d="M162,160 Q138,210 126,460 Q162,476 200,478 Q238,476 274,460 Q262,210 238,160 Q220,174 200,176 Q180,174 162,160 Z" fill="#5a1060" opacity="0.88"/>
  <!-- Gold brocade overlay on robe -->
  <path d="M175,165 Q160,220 154,440 Q176,458 200,460 Q186,226 180,167 Z" fill="#c09030" opacity="0.22"/>
  <path d="M225,165 Q240,220 246,440 Q224,458 200,460 Q214,226 220,167 Z" fill="#c09030" opacity="0.22"/>
  <!-- Imperial gold belt -->
  <rect x="154" y="282" width="92" height="11" rx="5" fill="#c9a030" opacity="0.88"/>
  <!-- Left arm (at side, slightly extended) -->
  <path d="M162,190 Q130,238 120,300 Q132,310 146,304 Q153,268 168,220 Z" fill="#5a1060" opacity="0.88"/>
  <!-- Left hand -->
  <ellipse cx="124" cy="304" rx="13" ry="9" fill="#d4b898" opacity="0.88"/>
  <!-- Right arm holds large cross upright -->
  <path d="M238,190 Q265,220 272,265 Q262,276 250,270 Q246,240 238,210 Z" fill="#5a1060" opacity="0.88"/>
  <!-- True Cross (large, held in right hand) -->
  <line x1="262" y1="460" x2="262" y2="160" stroke="#c9a030" stroke-width="8" stroke-linecap="round"/>
  <line x1="234" y1="245" x2="290" y2="245" stroke="#c9a030" stroke-width="6" stroke-linecap="round"/>
  <!-- Cross shine -->
  <line x1="262" y1="160" x2="262" y2="460" stroke="#f5e080" stroke-width="2" stroke-opacity="0.40" stroke-linecap="round"/>
  <!-- Right hand gripping cross -->
  <ellipse cx="256" cy="270" rx="13" ry="9" fill="#d4b898" opacity="0.88"/>
  <!-- Neck -->
  <rect x="193" y="143" width="14" height="18" rx="4" fill="#d4b898" opacity="0.88"/>
  <!-- Head -->
  <ellipse cx="200" cy="108" rx="26" ry="30" fill="#d4b898" opacity="0.90"/>
  <!-- Hair (dark, pinned up under crown) -->
  <path d="M174,106 Q176,66 200,60 Q224,66 226,106 Q220,80 200,78 Q180,80 174,106 Z" fill="#2a1808" opacity="0.85"/>
  <!-- Imperial crown (above head) -->
  <rect x="172" y="66" width="56" height="12" rx="3" fill="#c9a030" opacity="0.92"/>
  <polygon points="178,66 183,52 188,66" fill="#c9a030" opacity="0.92"/>
  <polygon points="195,66 200,48 205,66" fill="#c9a030" opacity="0.92"/>
  <polygon points="212,66 217,52 222,66" fill="#c9a030" opacity="0.92"/>
  <!-- Crown gems -->
  <circle cx="183" cy="52" r="3" fill="#e03030" opacity="0.85"/>
  <circle cx="200" cy="48" r="3.5" fill="#4050e0" opacity="0.85"/>
  <circle cx="217" cy="52" r="3" fill="#30a030" opacity="0.85"/>
  <!-- Halo: two thin gold rings -->
  <circle cx="200" cy="108" r="53" fill="none" stroke="#e8c97a" stroke-width="1.8" stroke-opacity="0.65" filter="url(#se-g2)"/>
  <circle cx="200" cy="108" r="47" fill="none" stroke="#e8c97a" stroke-width="0.5" stroke-opacity="0.22"/>
  <!-- Double frame -->
  <rect x="6" y="6" width="388" height="588" rx="8" fill="none" stroke="#c9a84c" stroke-width="1.2" stroke-opacity="0.5"/>
  <rect x="12" y="12" width="376" height="576" rx="5" fill="none" stroke="#c9a84c" stroke-width="0.5" stroke-opacity="0.18"/>
  <!-- Panel -->
  <rect x="18" y="528" width="364" height="66" rx="6" fill="#060200" opacity="0.88"/>
  <line x1="46" y1="535" x2="354" y2="535" stroke="#c9a84c" stroke-width="0.5" stroke-opacity="0.28"/>
  <text x="200" y="548" text-anchor="middle" font-family="Arial,sans-serif" font-size="8" fill="#c9a84c" letter-spacing="3" opacity="0.9">SANTA ELENA · SAINT HELENA</text>
  <text x="200" y="567" text-anchor="middle" font-family="Georgia,serif" font-size="14" fill="#d4a840" font-style="italic">«Descubridora de la Santa Cruz»</text>
  <text x="200" y="585" text-anchor="middle" font-family="Georgia,serif" font-size="11" fill="#f5e060" font-style="italic" opacity="0.8">«Discoverer of the True Cross»</text>

  <!-- Minimal facial features for visual consistency across intercessors -->
  <g id="tup-face-features" opacity="0.9">
    <ellipse id="tup-eye-left" cx="186" cy="108" rx="3.1" ry="2.2" fill="#2a1a12"/>
    <ellipse id="tup-eye-right" cx="214" cy="108" rx="3.1" ry="2.2" fill="#2a1a12"/>
    <path id="tup-nose" d="M200 112 C198 118, 198 120, 200 123" stroke="#7b4a35" stroke-width="1.6" fill="none" stroke-linecap="round"/>
    <path id="tup-mouth" d="M192 132 Q200 137 208 132" stroke="#8f3a3a" stroke-width="1.8" fill="none" stroke-linecap="round"/>
  </g>
</svg>
