<?xml version="1.0" encoding="UTF-8"?>
<svg xmlns="http://www.w3.org/2000/svg" viewBox="0 0 400 600">
  <defs>
    <style>
    </style>
    <radialGradient id="bg" cx="50%" cy="35%" r="65%">
      <stop offset="0%" stop-color="#0a1020"/>
      <stop offset="100%" stop-color="#04060a"/>
    </radialGradient>
    <linearGradient id="r1" x1="50%" y1="0%" x2="10%" y2="100%">
      <stop offset="0%" stop-color="#2859a8" stop-opacity="1"/>
      <stop offset="100%" stop-color="#0b1d3f" stop-opacity="0.42"/>
    </linearGradient>
    <linearGradient id="r2" x1="50%" y1="0%" x2="90%" y2="100%">
      <stop offset="0%" stop-color="#f5e060" stop-opacity="1"/>
      <stop offset="100%" stop-color="#c9a84c" stop-opacity="0.4"/>
    </linearGradient>
    <filter id="gl">
      <feGaussianBlur stdDeviation="9" result="b"/>
      <feMerge><feMergeNode in="b"/><feMergeNode in="b"/><feMergeNode in="SourceGraphic"/></feMerge>
    </filter>
  </defs>
  <rect width="400" height="600" fill="url(#bg)"/>
  <polygon points="198,265 -25,610 115,610" fill="url(#r1)" filter="url(#gl)" opacity="0.72"/>
  <polygon points="202,265 425,610 285,610" fill="url(#r2)" filter="url(#gl)" opacity="0.70"/>
  <path d="M168,155 Q140,205 126,390 Q200,415 274,390 Q260,205 232,155 Z" fill="#204c92" opacity="0.92"/>
  <path d="M140,215 Q92,218 72,208" stroke="#204c92" stroke-width="17" fill="none" stroke-linecap="round" opacity="0.86"/>
  <path d="M260,215 Q308,218 328,208" stroke="#173464" stroke-width="16" fill="none" stroke-linecap="round" opacity="0.82"/>
  <ellipse cx="71" cy="206" rx="12" ry="15" fill="#c8a060" opacity="0.9"/>
  <ellipse cx="329" cy="206" rx="12" ry="15" fill="#c8a060" opacity="0.9"/>
  <line x1="200" y1="210" x2="200" y2="252" stroke="#d4e6ff" stroke-width="4" opacity="0.82"/>
  <line x1="186" y1="222" x2="214" y2="222" stroke="#d4e6ff" stroke-width="4" opacity="0.82"/>
  <rect x="193" y="142" width="14" height="16" rx="4" fill="#c8a060" opacity="0.9"/>
  <ellipse cx="200" cy="108" rx="26" ry="30" fill="#c8a060" opacity="0.92"/>
  <path d="M174,107 Q176,72 200,68 Q224,72 226,107 Q219,86 200,84 Q181,86 174,107 Z" fill="#173464" opacity="0.82"/>
  <path d="M182,101 Q190,97 198,101" fill="none" stroke="#120909" stroke-width="2.1" stroke-linecap="round" opacity="0.8"/>
  <path d="M202,101 Q210,97 218,101" fill="none" stroke="#120909" stroke-width="2.1" stroke-linecap="round" opacity="0.8"/>
  <ellipse cx="190" cy="109" rx="4.4" ry="3.8" fill="#120909"/>
  <ellipse cx="210" cy="109" rx="4.4" ry="3.8" fill="#120909"/>
  <circle class="eye-left" cx="191" cy="107" r="1.8" fill="#ffffff" opacity="0.68"/>
  <circle class="eye-right" cx="211" cy="107" r="1.8" fill="#ffffff" opacity="0.68"/>
  <ellipse cx="192" cy="104" r="0.8" ry="0.5" fill="#ffffff" opacity="0.9"/>
  <ellipse cx="212" cy="104" r="0.8" ry="0.5" fill="#ffffff" opacity="0.9"/>
  <path d="M190,121 Q200,137 210,121" fill="none" stroke="#173464" stroke-width="2.6" stroke-linecap="round" opacity="0.95"/>
  <path d="M188,124 Q200,133 212,124" fill="none" stroke="#173464" stroke-width="1.7" stroke-linecap="round" opacity="0.7"/>
  <ellipse cx="195" cy="113" rx="2.6" ry="1.8" fill="#d4e6ff" opacity="0.3"/>
  <ellipse cx="205" cy="113" rx="2.6" ry="1.8" fill="#d4e6ff" opacity="0.3"/>
  <g class="symbol" opacity="0.6" transform="translate(200,94)">
    <path d="M-2,-2 Q-2,-3 -1,-3 Q0,-4 1,-3 Q2,-3 2,-2 Q2,-1 1,0 Q0,1 -1,0 Q-2,-1 -2,-2" fill="#e8c97a" stroke="#d4a584" stroke-width="0.4"/>
  </g>
  <circle cx="200" cy="108" r="53" fill="none" stroke="#d4e6ff" stroke-width="1.8" stroke-opacity="0.65"/>
  <rect x="6" y="6" width="388" height="588" rx="8" fill="none" stroke="#c9a84c" stroke-width="1.2" stroke-opacity="0.5"/>
  <rect x="18" y="528" width="364" height="66" rx="6" fill="#0a0502" opacity="0.86"/>
  <text x="200" y="548" text-anchor="middle" font-family="Arial,sans-serif" font-size="8" fill="#c9a84c" letter-spacing="2">SANTA COLETTE OF CORBIE - SANTA COLETA DE CORBIE</text>
  <text x="200" y="567" text-anchor="middle" font-family="Georgia,serif" font-size="14" fill="#d09840" font-style="italic">Poverty and reform</text>
  <text x="200" y="585" text-anchor="middle" font-family="Georgia,serif" font-size="11" fill="#f5e060" font-style="italic" opacity="0.8">Franciscan renewal</text>
</svg>
