<svg xmlns="http://www.w3.org/2000/svg" viewBox="0 0 400 600">
  <defs>
    <radialGradient id="ss-bg" cx="50%" cy="35%" r="65%">
      <stop offset="0%" stop-color="#100c1a"/><stop offset="100%" stop-color="#04020a"/>
    </radialGradient>
    <radialGradient id="ss-atm" cx="50%" cy="38%" r="46%">
      <stop offset="0%" stop-color="#4a3a8a" stop-opacity="0.26"/><stop offset="100%" stop-color="#4a3a8a" stop-opacity="0"/>
    </radialGradient>
    <linearGradient id="ss-r1" x1="50%" y1="0%" x2="10%" y2="100%">
      <stop offset="0%" stop-color="#7060b8" stop-opacity="1"/><stop offset="100%" stop-color="#2a1a60" stop-opacity="0.4"/>
    </linearGradient>
    <linearGradient id="ss-r2" x1="50%" y1="0%" x2="90%" y2="100%">
      <stop offset="0%" stop-color="#f5e060" stop-opacity="1"/><stop offset="100%" stop-color="#c9a84c" stop-opacity="0.4"/>
    </linearGradient>
    <filter id="ss-gl"><feGaussianBlur stdDeviation="9" result="b"/><feMerge><feMergeNode in="b"/><feMergeNode in="b"/><feMergeNode in="SourceGraphic"/></feMerge></filter>
    <filter id="ss-g2"><feGaussianBlur stdDeviation="5" result="b"/><feMerge><feMergeNode in="b"/><feMergeNode in="SourceGraphic"/></feMerge></filter>
  </defs>
  <rect width="400" height="600" fill="url(#ss-bg)"/>
  <rect width="400" height="600" fill="url(#ss-atm)"/>
  <!-- Stars (night sky) -->
  <circle cx="55" cy="38" r="1.5" fill="#e8d8ff" opacity="0.75"/>
  <circle cx="110" cy="22" r="1" fill="#f0e8ff" opacity="0.65"/>
  <circle cx="290" cy="28" r="1" fill="#f0e8ff" opacity="0.55"/>
  <circle cx="355" cy="48" r="1.5" fill="#e8d8ff" opacity="0.70"/>
  <circle cx="38" cy="82" r="1" fill="#f0e8ff" opacity="0.55"/>
  <circle cx="375" cy="76" r="1" fill="#f0e8ff" opacity="0.60"/>
  <circle cx="340" cy="148" r="0.8" fill="#e8d8ff" opacity="0.55"/>
  <circle cx="68" cy="155" r="0.8" fill="#e8d8ff" opacity="0.50"/>
  <!-- Crescent moon (upper right) -->
  <circle cx="338" cy="72" r="22" fill="#d8c8f0" opacity="0.18" filter="url(#ss-g2)"/>
  <circle cx="348" cy="68" r="18" fill="#100c1a" opacity="0.95"/>
  <!-- Rays: violet left, gold right -->
  <polygon points="198,262 -25,610 115,610" fill="url(#ss-r1)" filter="url(#ss-gl)" opacity="0.72"/>
  <polygon points="198,262 20,600  85,600"  fill="#7060b8" opacity="0.38"/>
  <polygon points="202,262 425,610 285,610" fill="url(#ss-r2)" filter="url(#ss-gl)" opacity="0.70"/>
  <polygon points="202,262 375,600 315,600" fill="#f5e060" opacity="0.34"/>
  <!-- Figure in prayer: white robe -->
  <path d="M164,158 Q140,208 128,458 Q162,474 200,476 Q238,474 272,458 Q260,208 236,158 Q218,172 200,174 Q182,172 164,158 Z" fill="#e8e4f0" opacity="0.88"/>
  <!-- Robe shadow -->
  <path d="M176,162 Q156,218 148,440 Q172,458 200,460 Q186,224 180,165 Z" fill="#c8c0d8" opacity="0.38"/>
  <!-- White veil -->
  <path d="M170,110 Q162,132 158,165 Q180,172 200,174 Q220,172 242,165 Q238,132 230,110 Q218,118 200,120 Q182,118 170,110 Z" fill="#f0eef8" opacity="0.92"/>
  <!-- Arms folded in prayer -->
  <path d="M164,195 Q130,232 118,295 Q130,305 144,298 Q152,260 166,218 Z" fill="#e8e4f0" opacity="0.88"/>
  <path d="M236,195 Q270,232 282,295 Q270,305 256,298 Q248,260 234,218 Z" fill="#e8e4f0" opacity="0.88"/>
  <!-- Hands joined -->
  <ellipse cx="126" cy="298" rx="13" ry="9" fill="#d4c0e8" opacity="0.85"/>
  <ellipse cx="272" cy="298" rx="13" ry="9" fill="#d4c0e8" opacity="0.85"/>
  <!-- Neck -->
  <rect x="193" y="142" width="14" height="18" rx="4" fill="#d4c0c8" opacity="0.88"/>
  <!-- Head -->
  <ellipse cx="200" cy="108" rx="26" ry="30" fill="#d4c0c8" opacity="0.90"/>
  <!-- Hair under veil (dark) -->
  <path d="M174,104 Q176,68 200,62 Q224,68 226,104" fill="#2a1830" opacity="0.78"/>
  <!-- Halo: two thin rings -->
  <circle cx="200" cy="108" r="53" fill="none" stroke="#e8c97a" stroke-width="1.8" stroke-opacity="0.65" filter="url(#ss-g2)"/>
  <circle cx="200" cy="108" r="47" fill="none" stroke="#e8c97a" stroke-width="0.5" stroke-opacity="0.22"/>
  <!-- Frame -->
  <rect x="6" y="6" width="388" height="588" rx="8" fill="none" stroke="#c9a84c" stroke-width="1.2" stroke-opacity="0.5"/>
  <rect x="12" y="12" width="376" height="576" rx="5" fill="none" stroke="#c9a84c" stroke-width="0.5" stroke-opacity="0.18"/>
  <!-- Panel -->
  <rect x="18" y="528" width="364" height="66" rx="6" fill="#04020a" opacity="0.88"/>
  <line x1="46" y1="535" x2="354" y2="535" stroke="#c9a84c" stroke-width="0.5" stroke-opacity="0.28"/>
  <text x="200" y="548" text-anchor="middle" font-family="Arial,sans-serif" font-size="8" fill="#c9a84c" letter-spacing="3" opacity="0.9">SANTA SELENE · SAINT SELENE</text>
  <text x="200" y="567" text-anchor="middle" font-family="Georgia,serif" font-size="14" fill="#c8b8f0" font-style="italic">«Fiel en la oscuridad»</text>
  <text x="200" y="585" text-anchor="middle" font-family="Georgia,serif" font-size="11" fill="#f5e060" font-style="italic" opacity="0.8">«Faithful in the dark»</text>
</svg>
